<?xml version="1.0" encoding="utf-8"?>
<!-- Generator: Adobe Illustrator 25.0.1, SVG Export Plug-In . SVG Version: 6.00 Build 0)  -->
<svg version="1.1" id="Layer_1" xmlns="http://www.w3.org/2000/svg" xmlns:xlink="http://www.w3.org/1999/xlink" x="0px" y="0px"
	 viewBox="0 0 512 512" enable-background="new 0 0 512 512" xml:space="preserve">
<g>
	<rect x="392.247" y="199.803" fill="#1C1D1A" width="60.827" height="65.398"/>
	<rect x="390.544" y="197.052" fill="#FFFFFF" width="55.084" height="64.862"/>
	<path fill="#036032" d="M399.371,290.829c0,0.158-0.035,0.324-0.103,0.499h-0.013c-0.278,0.697-0.416,1.081-0.416,1.154v0.013
		c0.005-0.005,0.02-0.018,0.038-0.035c-0.168-0.547-0.441-0.82-0.828-0.82c-0.456,0-0.95,0.183-1.487,0.547
		c-0.472,0.319-0.787,0.624-0.948,0.92c0,0.258,0.271,0.411,0.805,0.469c0.329,0.025,0.823,0.068,1.482,0.128
		c0.534,0.063,0.803,0.246,0.803,0.547c0,0.231-0.248,0.935-0.737,2.112c-0.253,0.243-0.868,0.544-1.836,0.898l-0.639-0.316
		c-0.063,0.04-0.213,0.168-0.454,0.376c-0.223,0.191-0.359,0.286-0.411,0.286c-0.095,0-0.311-0.088-0.642-0.268
		c-0.308-0.168-0.507-0.298-0.604-0.394l-0.594,0.564c-0.499,0.01-0.905-0.191-1.226-0.594c-0.296-0.366-0.444-0.797-0.444-1.287
		c0-0.958,0.401-2.046,1.201-3.253l0.025,0.594c-0.308,0.609-0.461,1.121-0.461,1.53c0,0.549,0.301,0.95,0.905,1.196
		c0.436,0.181,0.988,0.273,1.655,0.273c0.692,0,1.392-0.108,2.094-0.316c0.078-0.023,0.502-0.173,1.276-0.456
		c0-0.093-0.145-0.141-0.436-0.141c-0.113,0-0.281,0.008-0.509,0.02c-0.231,0.013-0.401,0.018-0.517,0.018
		c-1.043,0-1.562-0.298-1.562-0.89c0-0.411,0.163-0.93,0.487-1.555c0.359-0.705,0.79-1.274,1.289-1.71
		c0.604-0.527,1.241-0.795,1.903-0.795C399.07,290.142,399.371,290.372,399.371,290.829 M396.934,298.224
		c-0.547,0.639-0.893,0.958-1.041,0.958c-0.115-0.06-0.567-0.278-1.357-0.66c-0.14,0.125-0.281,0.248-0.429,0.369
		c-0.231,0.203-0.349,0.316-0.349,0.341c-0.171-0.04-0.461-0.176-0.858-0.409c-0.266-0.156-0.431-0.273-0.494-0.351
		c0.228-0.206,0.564-0.514,1.013-0.928c0.1,0.085,0.301,0.206,0.609,0.364c0.329,0.171,0.539,0.256,0.634,0.256
		c0.053,0,0.191-0.098,0.411-0.293c0.266-0.223,0.414-0.343,0.444-0.364L396.934,298.224z"/>
	<path fill="#036032" d="M405.214,294.084c0,1.164-0.216,1.743-0.642,1.743h-3.827l0.186-1.705h3.228
		c-0.015-0.226-0.15-0.499-0.404-0.82c-0.233-0.301-0.461-0.517-0.682-0.647c-0.218-0.133-0.514-0.276-0.885-0.434
		c0.168-0.589,0.361-1.166,0.579-1.743c0.166,0.045,0.401,0.166,0.7,0.364c0.356,0.236,0.647,0.486,0.883,0.76
		c0.429,0.504,0.705,1.094,0.828,1.766C405.201,293.512,405.214,293.75,405.214,294.084"/>
	<path fill="#036032" d="M411.614,295.815h-1.271c-0.233,0.614-0.624,1.191-1.176,1.73c-0.594,0.579-1.141,0.868-1.643,0.868
		c-0.436,0-1.026-0.138-1.77-0.414c-0.787-0.286-1.181-0.542-1.181-0.77c0-0.098,0.148-0.11,0.444-0.038
		c0.472,0.12,0.85,0.176,1.141,0.176c0.399,0,0.775-0.078,1.123-0.236c0.883-0.396,1.565-0.835,2.046-1.316
		c-0.519,0-0.981-0.065-1.379-0.188c-0.619-0.193-0.93-0.522-0.93-0.983c0-0.331,0.193-0.898,0.577-1.7
		c0.477-0.988,0.976-1.48,1.495-1.48c0.459,0,0.848,0.411,1.171,1.244c0.206,0.512,0.334,0.983,0.386,1.414h0.968V295.815z
		 M409.339,294.024c-0.058-0.208-0.148-0.406-0.268-0.594c-0.168-0.253-0.334-0.376-0.509-0.376c-0.171,0-0.364,0.16-0.577,0.484
		c0,0.183,0.13,0.331,0.386,0.449c0.198,0.09,0.419,0.135,0.667,0.135C409.239,294.122,409.339,294.087,409.339,294.024"/>
	<path fill="#036032" d="M417.177,295.814h-2.031c-0.093-0.173-0.261-0.451-0.499-0.833c-0.103,0.183-0.286,0.459-0.552,0.833
		h-2.889v-1.693h2.784c-0.095-0.171-0.246-0.323-0.446-0.456c-0.263-0.18-0.549-0.273-0.855-0.273c-0.158,0-0.359,0.025-0.602,0.073
		c0-0.048,0.123-0.288,0.366-0.715c0.208-0.374,0.359-0.629,0.449-0.765c0.023-0.058,0.198-0.153,0.524-0.286
		c0.411-0.168,0.807-0.248,1.184-0.248c0.634,0,1.159,0.203,1.58,0.612c0.334,0.319,0.502,0.625,0.502,0.918
		c0,0.163-0.09,0.371-0.263,0.619c-0.193,0.273-0.298,0.449-0.316,0.522h1.066V295.814z"/>
	<path fill="#036032" d="M426.126,295.814h-1.317c-0.06-0.108-0.145-0.266-0.251-0.474c-0.05,0.095-0.156,0.253-0.313,0.474h-2.154
		c-0.153-0.198-0.271-0.298-0.354-0.298c-0.033,0-0.09,0.05-0.181,0.15c-0.093,0.098-0.171,0.148-0.236,0.148l-2.322,0.013
		c-0.156-0.198-0.266-0.298-0.326-0.298c0.098,0,0.058,0.05-0.128,0.143c-0.183,0.093-0.321,0.143-0.411,0.143h-1.342v-1.693h1.733
		c0.203,0,0.301-0.203,0.301-0.607c0.203-0.351,0.374-0.629,0.514-0.838c0.268-0.409,0.469-0.632,0.589-0.68
		c0,0.369-0.173,1.081-0.524,2.124h2.014c0.138,0,0.228-0.09,0.266-0.273v-0.371c0.529-0.855,0.915-1.344,1.156-1.47
		c0.018,0,0.005,0.331-0.04,0.996c-0.02,0.283-0.088,0.657-0.198,1.118h1.302c0.033,0,0.053-0.033,0.053-0.098
		c0-0.073-0.02-0.183-0.055-0.323c-0.038-0.145-0.055-0.253-0.055-0.321c0.517-0.838,0.873-1.257,1.066-1.257
		c0.023,0.344,0.058,0.788,0.11,1.332c0.012,0.135,0.07,0.278,0.173,0.424c0.118,0.161,0.246,0.243,0.379,0.243h0.552V295.814z"/>
	<path fill="#036032" d="M429.738,290.07l-1.271,1.495c0,0.166,0.065,0.868,0.193,2.112c0,0.256-0.058,0.617-0.178,1.083
		c-0.055,0.18-0.13,0.451-0.226,0.805c-0.028,0.1-0.103,0.173-0.231,0.213c-0.098,0.028-0.191,0.043-0.276,0.043
		c-0.033,0-0.065-0.002-0.098-0.005h-1.853v-1.695h1.72c0.025-0.008,0.038-0.073,0.038-0.193c0-0.291-0.088-0.91-0.263-1.851
		l-0.288-1.557c-0.158-0.115-0.334-0.258-0.527-0.426l0.564-1.006c0.331-0.537,0.547-0.808,0.65-0.808
		c0.005,0.035,0.02,0.146,0.05,0.321c0.045,0.243,0.128,0.406,0.251,0.487C428.981,289.741,429.565,290.07,429.738,290.07"/>
	<path fill="#036032" d="M432.266,293.302c0.01,1.043-0.298,1.929-0.923,2.653l-0.707-5.041c0-0.105,0.181-0.454,0.539-1.046
		c0.334-0.544,0.539-0.868,0.617-0.971c0.115,0.642,0.196,1.116,0.236,1.432C432.18,291.418,432.261,292.406,432.266,293.302"/>
	<path fill="#036032" d="M440.326,294.4l-0.945,1.342c-1.467,0.015-2.789,0.512-3.96,1.487c0.063-0.411,0.233-0.737,0.514-0.991
		c0.103-0.093,0.419-0.298,0.955-0.625l-0.943-0.201c-0.376-0.113-0.592-0.301-0.642-0.557c0-0.604,0.243-1.196,0.732-1.778
		c0.589-0.7,1.334-1.046,2.232-1.046c0.564,0,0.905,0.298,1.013,0.9l-0.717,1.018c-0.466-0.389-0.853-0.577-1.164-0.559
		c-0.236,0.013-0.439,0.08-0.602,0.208c-0.13,0.108-0.226,0.176-0.276,0.198C436.973,294.235,438.239,294.433,440.326,294.4"/>
	<path fill="#036032" d="M444.278,295.814h-2.157c-0.05-0.05-0.231-2.076-0.539-6.079c0.053-0.075,0.409-0.527,1.066-1.359
		c0.176,1.876,0.369,3.767,0.579,5.673c0.05,0.048,0.293,0.073,0.725,0.073h0.326V295.814z"/>
	<path fill="#036032" d="M449.4,295.815h-0.983c-0.624,0-1.028-0.351-1.214-1.056c-0.165,0.281-0.374,0.635-0.629,1.056h-2.52
		v-1.693h2.957c0.078-0.156,0.125-0.609,0.14-1.354c0.073-0.098,0.258-0.323,0.567-0.68c0.316-0.374,0.507-0.582,0.564-0.624
		c0.035,0.524-0.008,1.159-0.128,1.903c-0.033,0.208,0.038,0.384,0.211,0.532c0.178,0.145,0.379,0.223,0.607,0.223h0.429V295.815z
		 M448.295,289.535c-0.005,0.068-0.181,0.268-0.514,0.607c-0.359,0.371-0.542,0.559-0.552,0.572
		c-0.953-0.469-1.485-0.705-1.597-0.705c0.356-0.369,0.765-0.765,1.219-1.196C447.658,289.297,448.139,289.535,448.295,289.535"/>
	<path fill="#036032" d="M454.445,295.815h-0.986c-0.622,0-1.026-0.354-1.211-1.056c-0.168,0.281-0.376,0.634-0.629,1.056h-2.523
		v-1.695h2.959c0.078-0.153,0.125-0.607,0.14-1.352c0.07-0.098,0.258-0.326,0.564-0.68c0.318-0.374,0.507-0.584,0.564-0.627
		c0.035,0.527-0.005,1.161-0.128,1.906c-0.033,0.208,0.04,0.384,0.213,0.532c0.176,0.145,0.379,0.221,0.607,0.221h0.429V295.815z
		 M453.088,298.388c0,0.073-0.186,0.248-0.567,0.527c-0.374,0.281-0.607,0.419-0.705,0.419c-0.07,0-0.296-0.143-0.672-0.426
		c-0.376-0.286-0.564-0.454-0.564-0.509c0-0.065,0.186-0.266,0.559-0.597c0.376-0.326,0.599-0.494,0.677-0.494
		c0.035,0,0.258,0.173,0.662,0.512C452.885,298.163,453.088,298.351,453.088,298.388"/>
	<path fill="#036032" d="M458.083,290.07l-1.271,1.495c0,0.166,0.065,0.868,0.193,2.112c0,0.256-0.058,0.617-0.178,1.083
		c-0.055,0.18-0.13,0.451-0.226,0.805c-0.025,0.1-0.103,0.173-0.231,0.213c-0.098,0.028-0.191,0.043-0.276,0.043
		c-0.033,0-0.065-0.002-0.098-0.005h-1.853v-1.695h1.72c0.025-0.008,0.038-0.073,0.038-0.193c0-0.291-0.085-0.91-0.263-1.851
		l-0.288-1.557c-0.158-0.115-0.334-0.258-0.527-0.426l0.564-1.006c0.331-0.537,0.547-0.808,0.65-0.808
		c0.008,0.035,0.023,0.146,0.05,0.321c0.045,0.243,0.128,0.406,0.251,0.487C457.326,289.741,457.91,290.07,458.083,290.07"/>
	<path fill="#036032" d="M460.612,293.302c0.01,1.043-0.298,1.929-0.925,2.653l-0.705-5.041c0-0.105,0.178-0.454,0.539-1.046
		c0.334-0.544,0.539-0.868,0.617-0.971c0.113,0.642,0.196,1.116,0.236,1.432C460.524,291.418,460.604,292.406,460.612,293.302"/>
	<path fill="#036032" d="M468.735,294.084c0,1.164-0.216,1.743-0.642,1.743h-3.827l0.186-1.705h3.228
		c-0.015-0.226-0.15-0.499-0.404-0.82c-0.236-0.301-0.464-0.517-0.685-0.647c-0.218-0.133-0.514-0.276-0.883-0.434
		c0.168-0.589,0.361-1.166,0.579-1.743c0.166,0.045,0.401,0.166,0.7,0.364c0.356,0.236,0.647,0.486,0.88,0.76
		c0.431,0.504,0.707,1.094,0.828,1.766C468.723,293.512,468.735,293.75,468.735,294.084"/>
	<path fill="#036032" d="M475.135,295.815h-1.271c-0.233,0.614-0.624,1.191-1.176,1.73c-0.594,0.579-1.141,0.868-1.643,0.868
		c-0.436,0-1.026-0.138-1.77-0.414c-0.787-0.286-1.181-0.542-1.181-0.77c0-0.098,0.148-0.11,0.441-0.038
		c0.471,0.12,0.853,0.176,1.144,0.176c0.399,0,0.772-0.078,1.123-0.236c0.88-0.396,1.565-0.835,2.046-1.316
		c-0.519,0-0.981-0.065-1.379-0.188c-0.619-0.193-0.93-0.522-0.93-0.983c0-0.331,0.191-0.898,0.577-1.7
		c0.477-0.988,0.976-1.48,1.495-1.48c0.459,0,0.848,0.411,1.171,1.244c0.206,0.512,0.334,0.983,0.386,1.414h0.968V295.815z
		 M472.861,294.024c-0.058-0.208-0.148-0.406-0.268-0.594c-0.168-0.253-0.336-0.376-0.509-0.376c-0.171,0-0.366,0.16-0.577,0.484
		c0,0.183,0.128,0.331,0.386,0.449c0.198,0.09,0.419,0.135,0.667,0.135C472.76,294.122,472.861,294.087,472.861,294.024"/>
	<path fill="#036032" d="M481,288.206l-0.487,1.663c-0.81,0.231-1.991,0.559-3.539,0.983c2.257,1.633,3.391,2.673,3.391,3.122
		c-0.128,0.507-0.313,1.121-0.552,1.841h-5.086v-1.695h4.178c-0.584-0.454-1.234-0.928-1.944-1.424
		c-0.008,0.148-0.1,0.223-0.278,0.223c-0.14,0-0.574-0.416-1.302-1.244l0.436-2.041L481,288.206z"/>
	<path fill="#036032" d="M48.111,209.609c0,0.326-0.073,0.669-0.216,1.031H47.87c-0.577,1.442-0.865,2.239-0.865,2.392v0.025
		c0.02-0.01,0.045-0.035,0.078-0.078c-0.344-1.131-0.915-1.698-1.715-1.698c-0.94,0-1.966,0.379-3.087,1.131
		c-0.973,0.665-1.625,1.301-1.951,1.916c0,0.527,0.554,0.848,1.66,0.968c0.685,0.05,1.708,0.138,3.075,0.263
		c1.106,0.133,1.66,0.512,1.66,1.131c0,0.479-0.509,1.939-1.53,4.379c-0.522,0.504-1.791,1.126-3.802,1.866l-1.317-0.657
		c-0.133,0.085-0.451,0.346-0.945,0.78c-0.461,0.394-0.747,0.592-0.853,0.592c-0.203,0-0.649-0.186-1.329-0.552
		c-0.637-0.354-1.053-0.624-1.251-0.82l-1.236,1.171c-1.031,0.015-1.878-0.394-2.543-1.231c-0.612-0.765-0.918-1.655-0.918-2.671
		c0-1.986,0.828-4.236,2.488-6.744l0.055,1.231c-0.639,1.269-0.96,2.327-0.96,3.172c0,1.141,0.627,1.966,1.878,2.48
		c0.903,0.376,2.049,0.567,3.431,0.567c1.439,0,2.881-0.218,4.338-0.655c0.158-0.045,1.043-0.356,2.648-0.945
		c0-0.193-0.303-0.288-0.905-0.288c-0.233,0-0.584,0.013-1.061,0.038c-0.474,0.022-0.83,0.04-1.071,0.04
		c-2.152,0-3.23-0.619-3.23-1.853c0-0.845,0.336-1.921,1.011-3.218c0.745-1.459,1.633-2.641,2.658-3.539
		c1.261-1.098,2.578-1.65,3.955-1.65C47.486,208.184,48.111,208.658,48.111,209.609 M43.055,224.934
		c-1.126,1.327-1.846,1.986-2.157,1.986c-0.241-0.123-1.174-0.582-2.806-1.369c-0.293,0.261-0.592,0.514-0.893,0.767
		c-0.476,0.419-0.72,0.655-0.72,0.705c-0.361-0.083-0.955-0.366-1.781-0.843c-0.552-0.326-0.89-0.569-1.023-0.73
		c0.469-0.429,1.169-1.068,2.102-1.926c0.203,0.178,0.627,0.429,1.266,0.757c0.672,0.351,1.108,0.527,1.314,0.527
		c0.105,0,0.391-0.203,0.85-0.604c0.552-0.469,0.858-0.722,0.92-0.755L43.055,224.934z"/>
	<path fill="#036032" d="M60.215,216.351c0,2.41-0.441,3.611-1.327,3.611h-7.932l0.389-3.536h6.688
		c-0.035-0.459-0.313-1.023-0.838-1.698c-0.487-0.619-0.958-1.066-1.417-1.339c-0.456-0.273-1.066-0.574-1.831-0.903
		c0.349-1.214,0.75-2.417,1.199-3.609c0.346,0.093,0.83,0.346,1.45,0.755c0.74,0.486,1.344,1.011,1.826,1.572
		c0.895,1.051,1.467,2.269,1.713,3.661C60.19,215.168,60.215,215.667,60.215,216.351"/>
	<path fill="#036032" d="M73.482,219.939h-2.633c-0.479,1.274-1.292,2.47-2.435,3.586c-1.231,1.199-2.367,1.801-3.408,1.801
		c-0.905,0-2.127-0.286-3.669-0.855c-1.635-0.599-2.448-1.131-2.448-1.6c0-0.201,0.303-0.226,0.915-0.075
		c0.976,0.241,1.765,0.366,2.37,0.366c0.823,0,1.6-0.163,2.327-0.491c1.826-0.823,3.24-1.733,4.246-2.731
		c-1.083,0-2.039-0.13-2.861-0.391c-1.289-0.401-1.929-1.081-1.929-2.036c0-0.69,0.396-1.863,1.196-3.523
		c0.986-2.049,2.019-3.072,3.1-3.072c0.948,0,1.758,0.86,2.423,2.581c0.426,1.063,0.692,2.041,0.798,2.932h2.009V219.939z
		 M68.772,216.227c-0.125-0.429-0.311-0.84-0.559-1.236c-0.346-0.519-0.695-0.78-1.051-0.78c-0.364,0-0.765,0.339-1.196,1.008
		c0,0.376,0.266,0.69,0.797,0.933c0.409,0.183,0.87,0.276,1.382,0.276C68.564,216.428,68.772,216.36,68.772,216.227"/>
	<path fill="#036032" d="M85.017,219.939h-4.203c-0.196-0.361-0.544-0.935-1.041-1.723c-0.211,0.374-0.592,0.95-1.144,1.723h-5.984
		v-3.511h5.77c-0.201-0.354-0.512-0.67-0.93-0.945c-0.552-0.376-1.139-0.562-1.771-0.562c-0.326,0-0.745,0.048-1.249,0.148
		c0-0.1,0.251-0.597,0.757-1.485c0.434-0.77,0.745-1.299,0.93-1.585c0.045-0.118,0.409-0.316,1.091-0.592
		c0.855-0.346,1.668-0.514,2.448-0.514c1.312,0,2.402,0.421,3.273,1.266c0.692,0.667,1.041,1.299,1.041,1.904
		c0,0.343-0.183,0.77-0.547,1.284c-0.401,0.569-0.614,0.928-0.655,1.081h2.212V219.939z"/>
	<path fill="#036032" d="M103.557,219.939h-2.726c-0.123-0.228-0.296-0.552-0.517-0.981c-0.11,0.191-0.326,0.519-0.655,0.981h-4.469
		c-0.311-0.411-0.557-0.617-0.732-0.617c-0.06,0-0.188,0.103-0.374,0.306c-0.186,0.206-0.346,0.311-0.476,0.311l-4.817,0.023
		c-0.331-0.409-0.554-0.614-0.68-0.614c0.206,0,0.115,0.1-0.266,0.296c-0.381,0.198-0.665,0.296-0.85,0.296h-2.781v-3.511h3.594
		c0.416,0,0.624-0.419,0.624-1.259c0.419-0.72,0.77-1.299,1.063-1.738c0.562-0.838,0.968-1.307,1.224-1.407
		c0,0.77-0.361,2.239-1.091,4.404h4.178c0.283,0,0.464-0.188,0.547-0.564v-0.77c1.101-1.77,1.893-2.784,2.392-3.045
		c0.045,0,0.02,0.687-0.08,2.061c-0.043,0.589-0.181,1.362-0.411,2.317h2.703c0.068,0,0.105-0.068,0.105-0.201
		c0-0.153-0.04-0.376-0.113-0.675c-0.078-0.296-0.115-0.519-0.115-0.662c1.073-1.735,1.808-2.603,2.209-2.603
		c0.043,0.712,0.118,1.633,0.226,2.756c0.025,0.286,0.145,0.579,0.359,0.88c0.248,0.336,0.512,0.504,0.785,0.504h1.144V219.939z"/>
	<path fill="#036032" d="M111.051,208.033l-2.636,3.095c0,0.349,0.133,1.808,0.399,4.379c0,0.532-0.123,1.279-0.371,2.244
		c-0.115,0.376-0.271,0.936-0.466,1.673c-0.053,0.208-0.213,0.359-0.479,0.439c-0.203,0.058-0.396,0.088-0.572,0.088
		c-0.07,0-0.138-0.002-0.198-0.01h-3.844v-3.513h3.566c0.05-0.015,0.078-0.15,0.078-0.401c0-0.607-0.181-1.883-0.544-3.837
		l-0.599-3.223c-0.329-0.243-0.695-0.537-1.091-0.88l1.169-2.089c0.685-1.116,1.131-1.675,1.347-1.675
		c0.005,0.075,0.045,0.298,0.105,0.67c0.09,0.502,0.261,0.838,0.519,1.006C109.481,207.354,110.685,208.033,111.051,208.033"/>
	<path fill="#036032" d="M116.291,214.727c0.015,2.167-0.622,4-1.916,5.5l-1.467-10.442c0-0.218,0.376-0.94,1.121-2.164
		c0.69-1.136,1.116-1.806,1.276-2.014c0.238,1.327,0.406,2.315,0.492,2.969C116.108,210.825,116.271,212.874,116.291,214.727"/>
	<path fill="#036032" d="M132.987,217.007l-1.956,2.779c-3.042,0.035-5.778,1.063-8.208,3.085c0.133-0.848,0.489-1.53,1.066-2.051
		c0.211-0.193,0.873-0.624,1.979-1.296l-1.954-0.416c-0.78-0.233-1.226-0.619-1.332-1.156c0-1.251,0.507-2.478,1.517-3.687
		c1.221-1.444,2.766-2.164,4.629-2.164c1.171,0,1.871,0.619,2.102,1.861l-1.49,2.114c-0.968-0.803-1.77-1.189-2.407-1.156
		c-0.497,0.025-0.915,0.168-1.251,0.429c-0.273,0.223-0.466,0.364-0.572,0.411C126.04,216.659,128.668,217.072,132.987,217.007"/>
	<path fill="#036032" d="M141.18,219.939h-4.469c-0.105-0.1-0.479-4.301-1.121-12.597c0.11-0.158,0.845-1.099,2.212-2.819
		c0.364,3.882,0.765,7.802,1.196,11.751c0.105,0.105,0.607,0.153,1.505,0.153h0.677V219.939z"/>
	<path fill="#036032" d="M151.801,219.939h-2.039c-1.294,0-2.134-0.73-2.515-2.189c-0.344,0.587-0.78,1.316-1.302,2.189h-5.226
		v-3.511h6.129c0.16-0.318,0.258-1.254,0.293-2.809c0.143-0.201,0.532-0.67,1.171-1.407c0.657-0.772,1.046-1.206,1.171-1.297
		c0.07,1.088-0.018,2.408-0.266,3.952c-0.073,0.426,0.078,0.795,0.439,1.101c0.364,0.306,0.78,0.459,1.251,0.459h0.893V219.939z
		 M149.509,206.926c-0.015,0.135-0.371,0.554-1.061,1.259c-0.75,0.765-1.128,1.159-1.146,1.184c-1.976-0.976-3.082-1.46-3.31-1.46
		c0.735-0.765,1.577-1.59,2.525-2.48C148.185,206.427,149.183,206.926,149.509,206.926"/>
	<path fill="#036032" d="M162.257,219.939h-2.039c-1.292,0-2.132-0.727-2.515-2.189c-0.344,0.587-0.78,1.317-1.302,2.189h-5.226
		v-3.511h6.132c0.158-0.319,0.256-1.254,0.291-2.806c0.143-0.203,0.532-0.672,1.171-1.409c0.657-0.773,1.046-1.204,1.171-1.297
		c0.07,1.088-0.018,2.408-0.268,3.952c-0.068,0.426,0.078,0.795,0.441,1.101c0.361,0.306,0.78,0.459,1.251,0.459h0.893V219.939z
		 M159.448,225.273c0,0.153-0.391,0.517-1.171,1.096c-0.78,0.579-1.271,0.868-1.462,0.868c-0.15,0-0.617-0.293-1.399-0.885
		c-0.78-0.592-1.171-0.945-1.171-1.053c0-0.143,0.389-0.554,1.164-1.239c0.777-0.682,1.246-1.026,1.407-1.026
		c0.07,0,0.527,0.356,1.369,1.063C159.025,224.807,159.448,225.198,159.448,225.273"/>
	<path fill="#036032" d="M169.798,208.033l-2.636,3.095c0,0.349,0.133,1.808,0.399,4.379c0,0.532-0.123,1.279-0.371,2.244
		c-0.115,0.376-0.271,0.936-0.466,1.673c-0.053,0.208-0.213,0.359-0.479,0.439c-0.203,0.058-0.396,0.088-0.572,0.088
		c-0.07,0-0.138-0.002-0.198-0.01h-3.844v-3.513h3.566c0.05-0.015,0.078-0.15,0.078-0.401c0-0.607-0.181-1.883-0.544-3.837
		l-0.599-3.223c-0.329-0.243-0.695-0.537-1.091-0.88l1.169-2.089c0.685-1.116,1.131-1.675,1.347-1.675
		c0.005,0.075,0.045,0.298,0.105,0.67c0.09,0.502,0.261,0.838,0.519,1.006C168.228,207.354,169.432,208.033,169.798,208.033"/>
	<path fill="#036032" d="M175.038,214.727c0.015,2.167-0.622,4-1.916,5.5l-1.467-10.442c0-0.218,0.376-0.94,1.121-2.164
		c0.69-1.136,1.116-1.806,1.276-2.014c0.238,1.327,0.406,2.315,0.491,2.969C174.855,210.825,175.018,212.874,175.038,214.727"/>
	<path fill="#036032" d="M191.865,216.351c0,2.41-0.441,3.611-1.327,3.611h-7.932l0.389-3.536h6.688
		c-0.035-0.459-0.313-1.023-0.838-1.698c-0.487-0.619-0.958-1.066-1.417-1.339c-0.456-0.273-1.066-0.574-1.831-0.903
		c0.349-1.214,0.75-2.417,1.199-3.609c0.346,0.093,0.83,0.346,1.45,0.755c0.737,0.486,1.344,1.011,1.826,1.572
		c0.895,1.051,1.467,2.269,1.713,3.661C191.84,215.168,191.865,215.667,191.865,216.351"/>
	<path fill="#036032" d="M205.131,219.939h-2.633c-0.479,1.274-1.291,2.47-2.438,3.586c-1.231,1.199-2.365,1.801-3.406,1.801
		c-0.905,0-2.127-0.286-3.669-0.855c-1.635-0.599-2.448-1.131-2.448-1.6c0-0.201,0.303-0.226,0.915-0.075
		c0.976,0.241,1.766,0.366,2.367,0.366c0.825,0,1.603-0.163,2.33-0.491c1.826-0.823,3.24-1.733,4.246-2.731
		c-1.086,0-2.039-0.13-2.861-0.391c-1.289-0.401-1.929-1.081-1.929-2.036c0-0.69,0.396-1.863,1.196-3.523
		c0.986-2.049,2.019-3.072,3.097-3.072c0.95,0,1.76,0.86,2.425,2.581c0.426,1.063,0.692,2.041,0.798,2.932h2.009V219.939z
		 M200.422,216.227c-0.125-0.429-0.311-0.84-0.559-1.236c-0.346-0.519-0.695-0.78-1.051-0.78c-0.364,0-0.765,0.339-1.199,1.008
		c0,0.376,0.268,0.69,0.8,0.933c0.409,0.183,0.87,0.276,1.382,0.276C200.213,216.428,200.422,216.36,200.422,216.227"/>
	<path fill="#036032" d="M217.316,219.939h-2.701c-0.675-0.572-1.522-1.317-2.54-2.239c-0.399,0.604-0.875,1.349-1.439,2.239h-6.342
		v-3.511h6.317v-0.048l-5.307-4.823c0.231-1.427,0.685-3.024,1.357-4.792l10.137-1.926l-0.955,3.421l-7.852,1.424l7.769,6.744h1.557
		V219.939z"/>
	<path fill="#036032" d="M224.782,208.033l-2.638,3.095c0,0.349,0.135,1.808,0.401,4.379c0,0.532-0.123,1.279-0.371,2.244
		c-0.115,0.376-0.273,0.936-0.466,1.673c-0.053,0.208-0.213,0.359-0.479,0.439c-0.203,0.058-0.396,0.088-0.572,0.088
		c-0.07,0-0.138-0.002-0.201-0.01h-3.842v-3.513h3.564c0.053-0.015,0.08-0.15,0.08-0.401c0-0.607-0.183-1.883-0.544-3.837
		l-0.602-3.223c-0.326-0.243-0.692-0.537-1.088-0.88l1.169-2.089c0.685-1.116,1.131-1.675,1.347-1.675
		c0.005,0.075,0.043,0.298,0.105,0.67c0.09,0.502,0.258,0.838,0.519,1.006C223.21,207.354,224.416,208.033,224.782,208.033"/>
	<path fill="#036032" d="M237.644,205.505c-1.176,1.374-1.871,2.064-2.074,2.064c-0.053,0-0.517-0.216-1.392-0.644
		c-0.87-0.426-1.339-0.67-1.402-0.727c-0.481,0.404-0.96,0.843-1.449,1.319c-0.381-0.08-0.935-0.311-1.665-0.692
		c-0.609-0.326-1.011-0.569-1.196-0.727c0.487-0.461,1.171-1.151,2.049-2.064c0.178,0.191,0.582,0.464,1.211,0.818
		c0.665,0.369,1.103,0.554,1.319,0.554c0.105,0,0.384-0.206,0.838-0.617c0.487-0.444,0.787-0.697,0.903-0.755L237.644,205.505z
		 M243.725,219.938h-3.22c-0.833,0-1.442-0.384-1.821-1.156c-0.035-0.053-0.273-0.782-0.707-2.192
		c-0.211,0.085-0.557,0.602-1.038,1.55c-0.364,0.712-0.775,1.071-1.236,1.071c-0.07,0-0.14-0.007-0.216-0.015
		c-2.924-0.637-4.865-0.956-5.826-0.956c0.02-0.419,0.253-1.221,0.707-2.405c0.532-1.359,1.023-2.232,1.475-2.628
		c0.401-0.346,1.226-0.815,2.478-1.412c1.221-0.584,1.976-1.018,2.257-1.294c0-0.125-0.05-0.303-0.156-0.534
		c-0.108-0.231-0.16-0.414-0.16-0.549c0.381-0.529,1.078-1.6,2.089-3.22c0.256,0.419,0.634,2.076,1.128,4.97
		c0.489,2.854,0.82,4.391,0.998,4.619c0.336,0.429,1.048,0.639,2.129,0.639h1.119V219.938z M237.619,215.068
		c0.015-0.133-0.198-1.101-0.652-2.907c-0.063,0-0.218,0.161-0.464,0.479c-0.482,0.627-1.073,1.103-1.77,1.424
		c-0.349,0.158-0.582,0.354-0.707,0.587c0.311,0.095,0.963,0.193,1.959,0.291C236.879,215.025,237.423,215.068,237.619,215.068"/>
	<path fill="#036032" d="M253.942,219.939h-2.036c-1.294,0-2.134-0.73-2.515-2.189c-0.344,0.587-0.78,1.316-1.304,2.189h-5.226
		v-3.513h6.132c0.16-0.319,0.258-1.251,0.293-2.806c0.143-0.201,0.532-0.67,1.171-1.407c0.657-0.772,1.046-1.206,1.169-1.297
		c0.073,1.088-0.015,2.408-0.266,3.95c-0.07,0.429,0.078,0.797,0.441,1.103c0.361,0.306,0.777,0.456,1.249,0.456h0.893V219.939z
		 M252.505,223.41c-1.021,1.455-1.658,2.179-1.916,2.179c-0.196,0-1.073-0.491-2.633-1.472c-0.436,0.409-0.893,0.87-1.369,1.382
		c-0.321-0.098-0.792-0.316-1.412-0.655c-0.685-0.369-1.101-0.647-1.251-0.83c0.472-0.486,1.103-1.191,1.901-2.114
		c0.188,0.193,0.579,0.472,1.171,0.833c0.639,0.386,1.056,0.577,1.251,0.577c0.073,0,0.326-0.218,0.757-0.652
		c0.499-0.497,0.775-0.765,0.825-0.807L252.505,223.41z"/>
	<path fill="#036032" d="M264.4,219.939h-2.039c-1.294,0-2.134-0.73-2.515-2.189c-0.344,0.587-0.78,1.316-1.302,2.189h-5.226v-3.511
		h6.129c0.16-0.318,0.258-1.254,0.293-2.809c0.143-0.201,0.532-0.67,1.171-1.407c0.657-0.772,1.046-1.206,1.171-1.297
		c0.07,1.088-0.018,2.408-0.266,3.952c-0.073,0.426,0.075,0.795,0.439,1.101c0.364,0.306,0.78,0.459,1.251,0.459h0.893V219.939z
		 M262.108,206.926c-0.015,0.135-0.371,0.554-1.061,1.259c-0.75,0.765-1.129,1.159-1.146,1.184c-1.976-0.976-3.085-1.46-3.313-1.46
		c0.735-0.765,1.58-1.59,2.525-2.48C260.784,206.427,261.782,206.926,262.108,206.926"/>
	<path fill="#036032" d="M282.262,215.296c-0.231,0.845-0.672,2.393-1.329,4.642h-17.158v-3.511h2.034
		c0.707,0,1.063-0.246,1.063-0.742c-0.251-2.332-0.574-4.79-0.971-7.373c-0.055-0.04-0.218-0.216-0.492-0.514
		c-0.115-0.11-0.173-0.326-0.173-0.645c0-0.276,0.286-0.792,0.863-1.547c0.542-0.722,0.963-1.184,1.264-1.384
		c0.171,0.955,0.96,1.843,2.367,2.656c0.454,0.201,0.9,0.416,1.344,0.639l-0.878,1.753c-0.434,0.702-0.913,1.053-1.439,1.053
		c0.11,0.772,0.16,1.437,0.16,1.989c0,0.276-0.12,0.863-0.371,1.753c-0.236,0.845-0.359,1.264-0.359,1.256
		c0.399-0.278,1.008-0.619,1.821-1.033c1.056-0.527,1.873-0.938,2.448-1.231c3.017-1.236,4.838-1.853,5.454-1.853
		c0.705,0,1.603,0.517,2.701,1.542C281.712,213.774,282.262,214.624,282.262,215.296 M279.137,216.427
		c-0.221-0.547-0.685-1.061-1.399-1.555c-0.707-0.489-1.369-0.737-1.979-0.737c-1.748,0-3.777,0.777-6.079,2.332
		c0.176,0.015,0.858,0.023,2.046,0.023C273.304,216.49,275.774,216.47,279.137,216.427"/>
	<path fill="#036032" d="M295.261,219.939h-2.633c-0.479,1.274-1.291,2.47-2.435,3.586c-1.231,1.199-2.367,1.801-3.408,1.801
		c-0.903,0-2.127-0.286-3.669-0.855c-1.633-0.599-2.448-1.131-2.448-1.6c0-0.201,0.303-0.226,0.915-0.075
		c0.976,0.241,1.766,0.366,2.37,0.366c0.823,0,1.6-0.163,2.327-0.491c1.826-0.823,3.24-1.733,4.246-2.731
		c-1.083,0-2.036-0.13-2.861-0.391c-1.286-0.401-1.929-1.081-1.929-2.036c0-0.69,0.399-1.863,1.196-3.523
		c0.986-2.049,2.019-3.072,3.1-3.072c0.95,0,1.758,0.86,2.422,2.581c0.426,1.063,0.692,2.041,0.8,2.932h2.006V219.939z
		 M290.552,216.227c-0.125-0.429-0.311-0.84-0.557-1.236c-0.346-0.519-0.697-0.78-1.053-0.78c-0.364,0-0.762,0.339-1.196,1.008
		c0,0.376,0.266,0.69,0.797,0.933c0.409,0.183,0.87,0.276,1.384,0.276C290.344,216.428,290.552,216.36,290.552,216.227"/>
	<path fill="#036032" d="M302.593,208.033l-2.638,3.095c0,0.349,0.135,1.808,0.401,4.379c0,0.532-0.125,1.279-0.374,2.244
		c-0.113,0.376-0.271,0.936-0.464,1.673c-0.055,0.208-0.216,0.359-0.479,0.439c-0.206,0.058-0.396,0.088-0.574,0.088
		c-0.07,0-0.138-0.002-0.198-0.01h-3.842v-3.513h3.564c0.053-0.015,0.08-0.15,0.08-0.401c0-0.607-0.183-1.883-0.544-3.837
		l-0.602-3.223c-0.326-0.243-0.692-0.537-1.091-0.88l1.171-2.089c0.682-1.116,1.131-1.675,1.344-1.675
		c0.008,0.075,0.045,0.298,0.108,0.67c0.088,0.502,0.258,0.838,0.519,1.006C301.021,207.354,302.227,208.033,302.593,208.033"/>
	<path fill="#036032" d="M307.832,214.727c0.015,2.167-0.622,4-1.916,5.5l-1.465-10.442c0-0.218,0.374-0.94,1.118-2.164
		c0.69-1.136,1.116-1.806,1.276-2.014c0.238,1.327,0.406,2.315,0.491,2.969C307.649,210.825,307.812,212.874,307.832,214.727"/>
	<path fill="#036032" d="M321.201,205.505c-1.176,1.374-1.871,2.064-2.074,2.064c-0.053,0-0.517-0.216-1.392-0.644
		c-0.87-0.426-1.339-0.67-1.402-0.727c-0.481,0.404-0.96,0.843-1.449,1.319c-0.381-0.08-0.935-0.311-1.665-0.692
		c-0.609-0.326-1.011-0.569-1.196-0.727c0.487-0.461,1.171-1.151,2.049-2.064c0.178,0.191,0.582,0.464,1.211,0.818
		c0.665,0.369,1.103,0.554,1.319,0.554c0.105,0,0.384-0.206,0.838-0.617c0.487-0.444,0.787-0.697,0.903-0.755L321.201,205.505z
		 M327.282,219.938h-3.22c-0.833,0-1.442-0.384-1.821-1.156c-0.035-0.053-0.273-0.782-0.707-2.192
		c-0.211,0.085-0.557,0.602-1.038,1.55c-0.364,0.712-0.775,1.071-1.236,1.071c-0.07,0-0.14-0.007-0.216-0.015
		c-2.924-0.637-4.865-0.956-5.826-0.956c0.02-0.419,0.253-1.221,0.707-2.405c0.532-1.359,1.023-2.232,1.475-2.628
		c0.401-0.346,1.226-0.815,2.478-1.412c1.221-0.584,1.976-1.018,2.257-1.294c0-0.125-0.05-0.303-0.156-0.534
		c-0.108-0.231-0.16-0.414-0.16-0.549c0.381-0.529,1.078-1.6,2.089-3.22c0.256,0.419,0.634,2.076,1.128,4.97
		c0.489,2.854,0.82,4.391,0.998,4.619c0.336,0.429,1.048,0.639,2.129,0.639h1.119V219.938z M321.176,215.068
		c0.015-0.133-0.198-1.101-0.652-2.907c-0.063,0-0.218,0.161-0.464,0.479c-0.482,0.627-1.073,1.103-1.77,1.424
		c-0.349,0.158-0.582,0.354-0.707,0.587c0.311,0.095,0.963,0.193,1.959,0.291C320.436,215.025,320.98,215.068,321.176,215.068"/>
	<path fill="#036032" d="M337.501,219.939h-2.039c-1.294,0-2.134-0.73-2.515-2.189c-0.344,0.587-0.78,1.316-1.302,2.189h-5.226
		v-3.511h6.129c0.16-0.318,0.258-1.254,0.293-2.809c0.143-0.201,0.532-0.67,1.171-1.407c0.657-0.772,1.046-1.206,1.171-1.297
		c0.07,1.088-0.018,2.408-0.266,3.952c-0.073,0.426,0.078,0.795,0.439,1.101c0.364,0.306,0.78,0.459,1.251,0.459h0.893V219.939z
		 M335.209,206.926c-0.015,0.135-0.371,0.554-1.061,1.259c-0.75,0.765-1.129,1.159-1.146,1.184c-1.976-0.976-3.082-1.46-3.31-1.46
		c0.735-0.765,1.577-1.59,2.525-2.48C333.885,206.427,334.883,206.926,335.209,206.926"/>
	<path fill="#036032" d="M357.226,219.94h-4.125l-0.374-2.455c-0.476-0.05-1.68-0.075-3.601-0.075c-0.622,0-1.68,0.419-3.182,1.264
		c-1.5,0.843-2.581,1.266-3.245,1.266h-5.826v-3.513h6.453c1.036,0,2.31-0.376,3.817-1.131c-2.708-0.965-4.286-1.434-4.737-1.409
		c-0.94,0.04-1.65,0.256-2.127,0.642c-0.243,0.186-0.431,0.276-0.572,0.276c-0.09,0-0.135-0.048-0.135-0.153
		c0.02-0.038,0.09-0.243,0.216-0.614c0.424-0.838,0.933-1.56,1.527-2.164c0.755-0.77,1.507-1.189,2.262-1.259
		c0.178-0.018,0.369-0.025,0.574-0.025c0.825,0,1.675,0.188,2.553,0.567c0.291,0.118,1.101,0.487,2.422,1.108
		c0.945,0.434,2.162,0.805,3.644,1.108c1.427,0.291,2.693,0.439,3.789,0.439c-0.168,0.253-0.366,0.72-0.597,1.409
		c-0.045,0.16-0.16,0.559-0.346,1.206h1.61V219.94z M349.071,223.185c0.018,0,0.025,0.003,0.025,0.013
		c0,0.093-0.369,0.517-1.103,1.271c-0.823,0.863-1.299,1.297-1.424,1.297c-2.162-1.051-3.243-1.67-3.243-1.863
		c0-0.118,0.391-0.547,1.176-1.284c0.785-0.737,1.249-1.108,1.389-1.108c0.028,0,0.534,0.278,1.517,0.838
		C348.391,222.906,348.946,223.185,349.071,223.185"/>
	<path fill="#036032" d="M364.385,219.939h-3.235c-0.414,0-0.637-0.221-0.662-0.67l-0.08-1.645
		c-0.158,0.376-0.584,1.149-1.279,2.315h-2.418v-3.511h3.669l-1.437-8.735c0.65-0.923,1.52-2.069,2.608-3.448
		c0.16,0,0.429,1.821,0.8,5.462c0.344,3.426,0.517,5.374,0.517,5.851c0,0.582,0.228,0.87,0.68,0.87h0.838V219.939z"/>
	<path fill="#036032" d="M371.956,208.033l-2.636,3.095c0,0.349,0.133,1.808,0.399,4.379c0,0.532-0.123,1.279-0.371,2.244
		c-0.115,0.376-0.271,0.936-0.466,1.673c-0.053,0.208-0.213,0.359-0.479,0.439c-0.203,0.058-0.396,0.088-0.572,0.088
		c-0.07,0-0.138-0.002-0.198-0.01h-3.844v-3.513h3.566c0.05-0.015,0.078-0.15,0.078-0.401c0-0.607-0.181-1.883-0.544-3.837
		l-0.599-3.223c-0.329-0.243-0.695-0.537-1.091-0.88l1.169-2.089c0.685-1.116,1.131-1.675,1.347-1.675
		c0.005,0.075,0.045,0.298,0.105,0.67c0.09,0.502,0.261,0.838,0.519,1.006C370.386,207.354,371.59,208.033,371.956,208.033"/>
	<path fill="#036032" d="M377.196,214.727c0.015,2.167-0.622,4-1.916,5.5l-1.467-10.442c0-0.218,0.376-0.94,1.121-2.164
		c0.69-1.136,1.116-1.806,1.276-2.014c0.238,1.327,0.406,2.315,0.491,2.969C377.013,210.825,377.176,212.874,377.196,214.727"/>
	<path fill="#036032" d="M32.403,245.038h0.564c0.308,1.452,0.813,2.508,1.505,3.165c0.695,0.66,1.49,0.991,2.385,0.991
		c0.87,0,1.487-0.228,1.853-0.68c0.369-0.451,0.552-0.928,0.552-1.427c0-0.584-0.191-1.058-0.574-1.427
		c-0.253-0.238-0.765-0.552-1.54-0.936l-1.244-0.629c-1.236-0.619-2.109-1.231-2.616-1.843c-0.507-0.607-0.76-1.354-0.76-2.247
		c0-0.951,0.334-1.833,1.008-2.658c0.672-0.825,1.703-1.234,3.092-1.234c0.705,0,1.389,0.108,2.046,0.323
		c0.662,0.213,1.038,0.321,1.134,0.321c0.211,0,0.359-0.06,0.439-0.186c0.08-0.12,0.148-0.286,0.201-0.489h0.579v4.231h-0.547
		c-0.253-0.981-0.702-1.823-1.347-2.53c-0.642-0.707-1.424-1.063-2.342-1.063c-0.647,0-1.159,0.18-1.537,0.537
		c-0.374,0.356-0.559,0.792-0.559,1.307c0,0.612,0.176,1.071,0.524,1.374c0.346,0.309,1.124,0.767,2.327,1.369l1.442,0.72
		c0.642,0.324,1.156,0.68,1.537,1.073c0.715,0.732,1.073,1.625,1.073,2.671c0,0.981-0.384,1.906-1.151,2.774
		c-0.765,0.87-1.994,1.304-3.681,1.304c-0.389,0-0.78-0.035-1.176-0.108c-0.399-0.073-0.79-0.186-1.179-0.338l-0.376-0.141
		c-0.085-0.025-0.173-0.045-0.253-0.063c-0.08-0.018-0.15-0.025-0.206-0.025c-0.201,0-0.339,0.058-0.414,0.178
		c-0.073,0.115-0.14,0.283-0.196,0.497h-0.564V245.038z"/>
	<path fill="#036032" d="M44.349,245.676c0.845-0.514,2.169-1.028,3.977-1.547v-1.414c0-0.574-0.123-1.003-0.369-1.276
		c-0.246-0.273-0.677-0.411-1.299-0.411c-0.351,0-0.639,0.063-0.865,0.196c-0.228,0.128-0.339,0.291-0.339,0.486
		c0,0.078,0.013,0.141,0.038,0.188c0.025,0.053,0.065,0.108,0.115,0.165l0.113,0.13c0.09,0.108,0.16,0.228,0.216,0.356
		c0.053,0.128,0.08,0.268,0.08,0.411c0,0.366-0.123,0.652-0.366,0.85c-0.246,0.198-0.529,0.298-0.855,0.298
		c-0.374,0-0.695-0.113-0.958-0.329c-0.263-0.223-0.394-0.542-0.394-0.958c0-0.745,0.351-1.334,1.058-1.768
		c0.705-0.436,1.572-0.652,2.601-0.652c1.108,0,2.034,0.208,2.779,0.634c0.735,0.431,1.103,1.219,1.103,2.37v4.707
		c0,0.138,0.04,0.258,0.113,0.354c0.07,0.098,0.155,0.145,0.241,0.145c0.078,0,0.148-0.013,0.206-0.043
		c0.06-0.028,0.153-0.105,0.283-0.231l0.293,0.409c-0.381,0.441-0.803,0.752-1.266,0.928c-0.291,0.115-0.599,0.173-0.928,0.173
		c-0.577,0-1.001-0.171-1.266-0.504c-0.155-0.191-0.263-0.474-0.334-0.848c-0.542,0.537-1.151,0.92-1.833,1.141
		c-0.414,0.141-0.82,0.211-1.221,0.211c-0.534,0-1.033-0.171-1.495-0.512c-0.466-0.336-0.697-0.863-0.697-1.58
		C43.08,246.882,43.502,246.19,44.349,245.676 M47.755,248.176c0.15-0.113,0.334-0.291,0.542-0.532v-2.844
		c-0.522,0.128-0.978,0.326-1.374,0.599c-0.665,0.464-0.998,1.053-0.998,1.768c0,0.426,0.095,0.747,0.288,0.966
		c0.196,0.218,0.414,0.328,0.655,0.328C47.183,248.462,47.479,248.367,47.755,248.176"/>
	<path fill="#036032" d="M56.35,240.629v6.591c0,0.391,0.05,0.68,0.143,0.863c0.166,0.323,0.492,0.486,0.983,0.486
		c0.311,0,0.617-0.103,0.915-0.296c0.173-0.11,0.389-0.288,0.647-0.539v-5.512c0-0.409-0.08-0.695-0.243-0.855
		c-0.16-0.163-0.489-0.256-0.976-0.273v-0.464h3.892v6.997c0,0.404,0.075,0.682,0.228,0.835c0.153,0.153,0.451,0.248,0.898,0.286
		v0.446c-1.211,0.11-1.971,0.196-2.285,0.251c-0.318,0.055-0.82,0.188-1.515,0.404v-1.279c-0.461,0.396-0.848,0.68-1.151,0.843
		c-0.537,0.291-1.091,0.436-1.673,0.436c-0.627,0-1.216-0.201-1.758-0.597c-0.544-0.401-0.818-1.108-0.818-2.127v-4.903
		c0-0.416-0.063-0.684-0.198-0.815c-0.135-0.128-0.391-0.231-0.775-0.313v-0.464H56.35z"/>
	<path fill="#036032" d="M64.813,241.733c0.735-0.89,1.618-1.332,2.648-1.332c0.514,0,0.971,0.123,1.372,0.379
		c0.251,0.15,0.562,0.421,0.938,0.815v-3.559c0-0.492-0.098-0.795-0.291-0.913c-0.188-0.118-0.582-0.188-1.179-0.216v-0.464h4.206
		v11.182c0,0.404,0.078,0.68,0.228,0.835c0.153,0.15,0.451,0.248,0.898,0.286v0.444c-1.093,0.108-1.801,0.191-2.119,0.243
		c-0.316,0.053-0.878,0.193-1.68,0.414v-1.282c-0.369,0.379-0.705,0.66-1.011,0.845c-0.481,0.291-1.003,0.436-1.562,0.436
		c-0.956,0-1.783-0.404-2.488-1.204c-0.707-0.805-1.061-1.896-1.061-3.275C63.712,243.835,64.078,242.619,64.813,241.733
		 M69.267,248.188c0.334-0.374,0.504-0.637,0.504-0.787v-4.725c0-0.158-0.145-0.391-0.434-0.705
		c-0.286-0.309-0.665-0.464-1.136-0.464c-0.697,0-1.169,0.481-1.417,1.434c-0.135,0.512-0.201,1.236-0.201,2.172
		c0,0.998,0.063,1.75,0.191,2.257c0.238,0.918,0.69,1.377,1.359,1.377C68.555,248.748,68.933,248.562,69.267,248.188"/>
	<path fill="#036032" d="M74.395,249.108c0.344-0.058,0.579-0.143,0.707-0.258c0.193-0.171,0.286-0.476,0.286-0.92v-5.708
		c0-0.399-0.065-0.665-0.201-0.81c-0.133-0.143-0.396-0.248-0.792-0.319v-0.464h3.752v7.375c0,0.426,0.06,0.7,0.191,0.818
		c0.128,0.12,0.364,0.216,0.715,0.286v0.464h-4.657V249.108z M75.699,236.592c0.296-0.293,0.654-0.441,1.071-0.441
		c0.414,0,0.77,0.148,1.066,0.441c0.296,0.296,0.441,0.65,0.441,1.066c0,0.419-0.145,0.772-0.441,1.068
		c-0.296,0.293-0.652,0.439-1.066,0.439c-0.416,0-0.775-0.145-1.071-0.439c-0.296-0.296-0.444-0.649-0.444-1.068
		C75.255,237.242,75.403,236.888,75.699,236.592"/>
	<path fill="#036032" d="M84.709,249.077c0.529-0.018,0.908-0.088,1.136-0.206c0.389-0.203,0.579-0.589,0.579-1.159v-9.409
		c0-0.564-0.178-0.945-0.542-1.141c-0.218-0.118-0.607-0.193-1.174-0.223v-0.494h6.036c1.166,0,2.132,0.133,2.902,0.396
		c1.45,0.502,2.174,1.412,2.174,2.736c0,0.8-0.293,1.437-0.883,1.906c-0.587,0.474-1.224,0.772-1.911,0.9v0.178
		c0.725,0.14,1.354,0.374,1.891,0.702c1.043,0.647,1.562,1.545,1.562,2.693c0,1.076-0.499,1.946-1.5,2.613
		c-0.998,0.667-2.325,1.003-3.985,1.003h-6.287V249.077z M91.979,241.747c0.414-0.391,0.619-1.088,0.619-2.086
		c0-0.74-0.135-1.362-0.404-1.868c-0.273-0.507-0.795-0.757-1.56-0.757c-0.409,0-0.695,0.065-0.85,0.203
		c-0.16,0.135-0.238,0.381-0.238,0.735v4.361C90.753,242.333,91.565,242.14,91.979,241.747 M89.697,248.528
		c0.16,0.278,0.466,0.419,0.918,0.419c0.92,0,1.57-0.251,1.941-0.75c0.374-0.502,0.559-1.211,0.559-2.132
		c0-1.382-0.411-2.297-1.234-2.753c-0.497-0.278-1.274-0.406-2.335-0.389v4.855C89.551,248.121,89.601,248.372,89.697,248.528"/>
	<path fill="#036032" d="M101.42,240.629v6.591c0,0.391,0.048,0.68,0.14,0.863c0.168,0.323,0.494,0.486,0.986,0.486
		c0.311,0,0.617-0.103,0.913-0.296c0.176-0.11,0.389-0.288,0.65-0.539v-5.512c0-0.409-0.08-0.695-0.243-0.855
		c-0.16-0.163-0.489-0.256-0.976-0.273v-0.464h3.892v6.997c0,0.404,0.075,0.682,0.228,0.835c0.153,0.153,0.451,0.248,0.898,0.286
		v0.446c-1.211,0.11-1.971,0.196-2.285,0.251c-0.318,0.055-0.823,0.188-1.515,0.404v-1.279c-0.461,0.396-0.848,0.68-1.151,0.843
		c-0.537,0.291-1.091,0.436-1.673,0.436c-0.629,0-1.216-0.201-1.758-0.597c-0.544-0.401-0.818-1.108-0.818-2.127v-4.903
		c0-0.416-0.063-0.684-0.198-0.815c-0.135-0.128-0.391-0.231-0.775-0.313v-0.464H101.42z"/>
	<path fill="#036032" d="M108.602,249.108c0.346-0.058,0.579-0.143,0.707-0.258c0.193-0.171,0.286-0.476,0.286-0.92v-5.708
		c0-0.399-0.065-0.665-0.201-0.81c-0.133-0.143-0.396-0.248-0.792-0.319v-0.464h3.752v7.375c0,0.426,0.06,0.7,0.191,0.818
		c0.128,0.12,0.364,0.216,0.715,0.286v0.464h-4.657V249.108z M109.906,236.592c0.296-0.293,0.655-0.441,1.071-0.441
		c0.414,0,0.77,0.148,1.066,0.441c0.296,0.296,0.444,0.65,0.444,1.066c0,0.419-0.148,0.772-0.444,1.068
		c-0.296,0.293-0.652,0.439-1.066,0.439c-0.416,0-0.775-0.145-1.071-0.439c-0.296-0.296-0.444-0.649-0.444-1.068
		C109.462,237.242,109.61,236.888,109.906,236.592"/>
	<path fill="#036032" d="M114.031,249.108c0.344-0.083,0.587-0.191,0.732-0.328c0.14-0.135,0.211-0.419,0.211-0.85v-9.893
		c0-0.411-0.063-0.685-0.198-0.812c-0.135-0.128-0.381-0.233-0.745-0.316v-0.464h3.704v11.486c0,0.431,0.07,0.715,0.208,0.845
		c0.14,0.133,0.386,0.246,0.742,0.334v0.464h-4.654V249.108z"/>
	<path fill="#036032" d="M120.745,241.733c0.735-0.89,1.615-1.332,2.646-1.332c0.517,0,0.97,0.123,1.374,0.379
		c0.248,0.15,0.559,0.421,0.935,0.815v-3.559c0-0.492-0.095-0.795-0.288-0.913c-0.191-0.118-0.584-0.188-1.181-0.216v-0.464h4.206
		v11.182c0,0.404,0.078,0.68,0.228,0.835c0.153,0.15,0.451,0.248,0.898,0.286v0.444c-1.093,0.108-1.801,0.191-2.117,0.243
		c-0.316,0.053-0.88,0.193-1.68,0.414v-1.282c-0.369,0.379-0.707,0.66-1.011,0.845c-0.482,0.291-1.006,0.436-1.562,0.436
		c-0.958,0-1.786-0.404-2.49-1.204c-0.707-0.805-1.058-1.896-1.058-3.275C119.644,243.835,120.01,242.619,120.745,241.733
		 M125.196,248.188c0.334-0.374,0.504-0.637,0.504-0.787v-4.725c0-0.158-0.143-0.391-0.434-0.705
		c-0.283-0.309-0.662-0.464-1.136-0.464c-0.695,0-1.166,0.481-1.417,1.434c-0.135,0.512-0.198,1.236-0.198,2.172
		c0,0.998,0.06,1.75,0.188,2.257c0.238,0.918,0.69,1.377,1.359,1.377C124.484,248.748,124.863,248.562,125.196,248.188"/>
	<path fill="#036032" d="M130.322,249.108c0.344-0.058,0.579-0.143,0.707-0.258c0.193-0.171,0.286-0.476,0.286-0.92v-5.708
		c0-0.399-0.065-0.665-0.201-0.81c-0.133-0.143-0.396-0.248-0.792-0.319v-0.464h3.752v7.375c0,0.426,0.06,0.7,0.191,0.818
		c0.128,0.12,0.364,0.216,0.715,0.286v0.464h-4.657V249.108z M131.626,236.592c0.296-0.293,0.654-0.441,1.071-0.441
		c0.414,0,0.77,0.148,1.066,0.441c0.296,0.296,0.441,0.65,0.441,1.066c0,0.419-0.145,0.772-0.441,1.068
		c-0.296,0.293-0.652,0.439-1.066,0.439c-0.416,0-0.775-0.145-1.071-0.439c-0.296-0.296-0.444-0.649-0.444-1.068
		C131.183,237.242,131.33,236.888,131.626,236.592"/>
	<path fill="#036032" d="M135.752,249.108c0.356-0.045,0.619-0.14,0.785-0.288c0.171-0.148,0.256-0.446,0.256-0.89v-5.708
		c0-0.396-0.068-0.669-0.206-0.823c-0.135-0.153-0.416-0.253-0.835-0.306v-0.464h3.704v1.392c0.311-0.466,0.705-0.855,1.186-1.161
		c0.481-0.306,1.013-0.459,1.597-0.459c0.84,0,1.49,0.213,1.951,0.645c0.461,0.431,0.692,1.186,0.692,2.265v4.697
		c0,0.436,0.073,0.72,0.221,0.843c0.153,0.128,0.401,0.213,0.752,0.258v0.464h-4.589v-0.464c0.351-0.07,0.589-0.163,0.715-0.286
		c0.128-0.118,0.191-0.391,0.191-0.815v-4.705c0-0.444-0.045-0.775-0.13-0.996c-0.155-0.399-0.456-0.597-0.908-0.597
		c-0.339,0-0.65,0.12-0.933,0.364c-0.281,0.243-0.499,0.489-0.652,0.735v5.199c0,0.424,0.063,0.697,0.191,0.815
		c0.13,0.123,0.366,0.216,0.715,0.286v0.464h-4.702V249.108z"/>
	<path fill="#036032" d="M147.098,250.963c0.236-0.293,0.637-0.486,1.209-0.574v-0.133c-0.384-0.145-0.66-0.296-0.828-0.446
		c-0.306-0.271-0.459-0.634-0.459-1.088c0-0.544,0.238-1.013,0.717-1.397c0.482-0.386,0.95-0.652,1.409-0.805v-0.133
		c-0.662-0.266-1.196-0.647-1.6-1.139c-0.409-0.494-0.614-1.093-0.614-1.793c0-0.885,0.356-1.615,1.068-2.192
		c0.712-0.574,1.678-0.86,2.889-0.86c0.461,0,0.88,0.04,1.261,0.13c0.384,0.09,0.677,0.181,0.885,0.276h2.578v1.036h-1.585
		c0.256,0.246,0.451,0.532,0.587,0.86c0.138,0.328,0.206,0.687,0.206,1.071c0,1.214-0.582,2.046-1.745,2.495
		c-0.609,0.243-1.369,0.361-2.282,0.361c-0.196,0-0.324-0.002-0.384-0.01c-0.06-0.005-0.15-0.008-0.273-0.008
		c-0.188,0.03-0.391,0.133-0.599,0.301c-0.216,0.178-0.324,0.391-0.324,0.634c0,0.201,0.055,0.351,0.16,0.456
		c0.108,0.11,0.258,0.176,0.449,0.201c0.095,0.013,0.298,0.025,0.609,0.033c0.313,0.01,0.554,0.015,0.725,0.015l1.269,0.017
		c0.72,0.013,1.324,0.115,1.813,0.313c0.935,0.379,1.404,1.058,1.404,2.039c0,1.266-0.702,2.134-2.099,2.608
		c-0.737,0.248-1.668,0.369-2.786,0.369c-0.915,0-1.705-0.088-2.367-0.261c-1.093-0.298-1.64-0.805-1.64-1.52
		C146.752,251.542,146.868,251.256,147.098,250.963 M149.115,252.635c0.426,0.226,1.048,0.341,1.863,0.341
		c0.725,0,1.324-0.055,1.793-0.168c0.883-0.221,1.327-0.614,1.327-1.194c0-0.336-0.125-0.589-0.376-0.755
		c-0.253-0.171-0.71-0.253-1.369-0.253h-3.205c-0.203,0.165-0.351,0.303-0.441,0.419c-0.155,0.211-0.236,0.431-0.236,0.665
		C148.47,252.091,148.686,252.407,149.115,252.635 M149.794,245.19c0.193,0.572,0.559,0.853,1.096,0.853
		c0.492,0,0.83-0.213,1.013-0.639c0.186-0.424,0.278-1.051,0.278-1.873c0-0.873-0.1-1.507-0.293-1.906
		c-0.196-0.401-0.527-0.597-0.998-0.597c-0.512,0-0.855,0.213-1.028,0.639c-0.171,0.426-0.256,1.048-0.256,1.863
		C149.606,244.277,149.669,244.828,149.794,245.19"/>
	<path fill="#036032" d="M170.982,236.647c0.835,0.301,1.297,0.452,1.392,0.452c0.248,0,0.446-0.093,0.597-0.286
		c0.148-0.186,0.246-0.386,0.283-0.597h0.542v4.544h-0.497c-0.469-0.986-0.95-1.763-1.437-2.335c-0.915-1.046-1.951-1.57-3.107-1.57
		c-1.309,0-2.239,0.559-2.789,1.678c-0.547,1.123-0.823,2.633-0.823,4.524c0,1.389,0.163,2.533,0.487,3.431
		c0.604,1.683,1.723,2.525,3.363,2.525c1.003,0,1.936-0.278,2.801-0.835c0.497-0.323,1.081-0.84,1.753-1.547l0.582,0.474
		c-0.762,0.85-1.434,1.462-2.011,1.841c-1.031,0.677-2.177,1.016-3.436,1.016c-1.926,0-3.544-0.567-4.845-1.708
		c-1.444-1.259-2.164-2.954-2.164-5.083c0-2.114,0.687-3.822,2.069-5.133c1.299-1.226,2.886-1.838,4.77-1.838
		C169.327,236.199,170.147,236.346,170.982,236.647"/>
	<path fill="#036032" d="M176.747,241.737c0.835-0.905,1.886-1.357,3.15-1.357c1.294,0,2.35,0.461,3.175,1.387
		c0.825,0.923,1.234,2.041,1.234,3.355c0,1.297-0.406,2.413-1.219,3.345c-0.815,0.93-1.876,1.397-3.19,1.397
		c-1.269,0-2.322-0.454-3.155-1.362c-0.833-0.905-1.249-2.034-1.249-3.381C175.493,243.771,175.909,242.642,176.747,241.737
		 M178.573,247.979c0.226,0.84,0.665,1.262,1.324,1.262c0.634,0,1.048-0.324,1.241-0.968c0.198-0.647,0.296-1.695,0.296-3.15
		c0-1.447-0.1-2.493-0.306-3.145c-0.208-0.647-0.614-0.971-1.221-0.971c-0.66,0-1.098,0.419-1.324,1.261
		c-0.145,0.564-0.218,1.512-0.218,2.854C178.365,246.482,178.435,247.435,178.573,247.979"/>
	<path fill="#036032" d="M186.432,241.733c0.735-0.89,1.615-1.332,2.646-1.332c0.517,0,0.97,0.123,1.374,0.379
		c0.248,0.15,0.559,0.421,0.935,0.815v-3.559c0-0.492-0.095-0.795-0.288-0.913c-0.191-0.118-0.584-0.188-1.181-0.216v-0.464h4.206
		v11.182c0,0.404,0.078,0.68,0.228,0.835c0.155,0.15,0.451,0.248,0.898,0.286v0.444c-1.093,0.108-1.798,0.191-2.117,0.243
		c-0.316,0.053-0.88,0.193-1.68,0.414v-1.282c-0.369,0.379-0.707,0.66-1.011,0.845c-0.481,0.291-1.006,0.436-1.562,0.436
		c-0.958,0-1.786-0.404-2.49-1.204c-0.707-0.805-1.058-1.896-1.058-3.275C185.331,243.835,185.697,242.619,186.432,241.733
		 M190.883,248.188c0.334-0.374,0.504-0.637,0.504-0.787v-4.725c0-0.158-0.143-0.391-0.434-0.705
		c-0.283-0.309-0.662-0.464-1.134-0.464c-0.697,0-1.169,0.481-1.419,1.434c-0.135,0.512-0.198,1.236-0.198,2.172
		c0,0.998,0.06,1.75,0.188,2.257c0.238,0.918,0.69,1.377,1.362,1.377C190.171,248.748,190.549,248.562,190.883,248.188"/>
	<path fill="#036032" d="M197.322,241.636c0.8-0.823,1.766-1.234,2.891-1.234c0.642,0,1.249,0.165,1.816,0.499
		c0.564,0.339,1.001,0.803,1.307,1.397c0.231,0.449,0.389,1.028,0.476,1.746c0.045,0.334,0.068,0.592,0.068,0.767h-4.988
		c0.045,0.777,0.173,1.45,0.381,2.021c0.381,1.068,1.056,1.602,2.019,1.602c0.459,0,0.89-0.143,1.299-0.429
		c0.248-0.171,0.559-0.459,0.925-0.863l0.451,0.273c-0.607,0.991-1.307,1.675-2.101,2.061c-0.517,0.246-1.108,0.371-1.778,0.371
		c-0.96,0-1.861-0.379-2.701-1.129c-0.84-0.755-1.261-1.956-1.261-3.606C196.125,243.62,196.524,242.461,197.322,241.636
		 M201.477,244.088c-0.013-1.146-0.103-1.941-0.268-2.397c-0.168-0.456-0.499-0.684-0.996-0.684c-0.512,0-0.86,0.261-1.048,0.787
		c-0.191,0.524-0.296,1.289-0.321,2.295H201.477z"/>
	<path fill="#036032" d="M209.565,249.078c0.725-0.017,1.194-0.155,1.402-0.411c0.213-0.256,0.316-0.632,0.316-1.134v-9.201
		c-0.597-0.665-0.968-1.053-1.108-1.171c-0.138-0.115-0.331-0.191-0.569-0.221v-0.497h4.138l6.718,8.118h0.093v-5.708
		c0-0.657-0.12-1.126-0.361-1.407c-0.238-0.283-0.72-0.452-1.442-0.507v-0.497h4.198v0.497c-0.612,0.1-1.018,0.233-1.224,0.404
		c-0.208,0.168-0.311,0.552-0.311,1.138v11.451h-0.547l-8.592-10.387h-0.135v7.616c0,0.599,0.085,1.021,0.248,1.269
		c0.258,0.401,0.795,0.617,1.605,0.647v0.494h-4.429V249.078z"/>
	<path fill="#036032" d="M225.125,245.676c0.848-0.514,2.172-1.028,3.98-1.547v-1.414c0-0.574-0.123-1.003-0.369-1.276
		c-0.246-0.273-0.677-0.411-1.299-0.411c-0.351,0-0.64,0.063-0.865,0.196c-0.228,0.128-0.339,0.291-0.339,0.486
		c0,0.078,0.013,0.141,0.038,0.188c0.025,0.053,0.065,0.108,0.115,0.165l0.113,0.13c0.09,0.108,0.16,0.228,0.213,0.356
		c0.055,0.128,0.083,0.268,0.083,0.411c0,0.366-0.123,0.652-0.366,0.85c-0.246,0.198-0.529,0.298-0.855,0.298
		c-0.374,0-0.695-0.113-0.958-0.329c-0.263-0.223-0.394-0.542-0.394-0.958c0-0.745,0.351-1.334,1.058-1.768
		c0.705-0.436,1.572-0.652,2.601-0.652c1.108,0,2.034,0.208,2.779,0.634c0.735,0.431,1.103,1.219,1.103,2.37v4.707
		c0,0.138,0.04,0.258,0.113,0.354c0.07,0.098,0.156,0.145,0.241,0.145c0.075,0,0.148-0.013,0.206-0.043
		c0.06-0.028,0.153-0.105,0.283-0.231l0.293,0.409c-0.381,0.441-0.803,0.752-1.266,0.928c-0.293,0.115-0.599,0.173-0.928,0.173
		c-0.577,0-1.001-0.171-1.266-0.504c-0.156-0.191-0.263-0.474-0.334-0.848c-0.542,0.537-1.151,0.92-1.833,1.141
		c-0.414,0.141-0.82,0.211-1.221,0.211c-0.534,0-1.033-0.171-1.495-0.512c-0.466-0.336-0.697-0.863-0.697-1.58
		C223.858,246.882,224.28,246.19,225.125,245.676 M228.533,248.176c0.15-0.113,0.334-0.291,0.542-0.532v-2.844
		c-0.522,0.128-0.978,0.326-1.374,0.599c-0.667,0.464-0.998,1.053-0.998,1.768c0,0.426,0.095,0.747,0.288,0.966
		c0.196,0.218,0.414,0.328,0.655,0.328C227.961,248.462,228.257,248.367,228.533,248.176"/>
	<path fill="#036032" d="M233.445,241.481v-0.539c0.173-0.158,0.386-0.349,0.639-0.562c0.336-0.308,0.655-0.629,0.956-0.955
		c0.592-0.647,1.126-1.339,1.61-2.079h0.499v3.283h1.858v0.853h-1.858v5.843c0,0.271,0.04,0.499,0.12,0.682
		c0.128,0.283,0.336,0.426,0.632,0.426c0.253,0,0.464-0.09,0.639-0.268c0.171-0.183,0.341-0.429,0.512-0.747l0.469,0.231
		c-0.226,0.529-0.499,0.96-0.818,1.299c-0.562,0.584-1.241,0.88-2.051,0.88c-0.456,0-0.855-0.085-1.199-0.256
		c-0.66-0.328-0.996-0.925-0.998-1.793v-6.297H233.445z"/>
	<path fill="#036032" d="M239.947,249.108c0.344-0.058,0.579-0.143,0.707-0.258c0.193-0.171,0.286-0.476,0.286-0.92v-5.708
		c0-0.399-0.065-0.665-0.201-0.81c-0.133-0.143-0.396-0.248-0.792-0.319v-0.464h3.752v7.375c0,0.426,0.06,0.7,0.191,0.818
		c0.128,0.12,0.364,0.216,0.715,0.286v0.464h-4.657V249.108z M241.251,236.592c0.296-0.293,0.655-0.441,1.071-0.441
		c0.414,0,0.77,0.148,1.066,0.441c0.296,0.296,0.441,0.65,0.441,1.066c0,0.419-0.145,0.772-0.441,1.068
		c-0.296,0.293-0.652,0.439-1.066,0.439c-0.416,0-0.775-0.145-1.071-0.439c-0.296-0.296-0.444-0.649-0.444-1.068
		C240.807,237.242,240.955,236.888,241.251,236.592"/>
	<path fill="#036032" d="M246.746,241.737c0.833-0.905,1.886-1.357,3.15-1.357c1.294,0,2.35,0.461,3.172,1.387
		c0.828,0.923,1.236,2.041,1.236,3.355c0,1.297-0.406,2.413-1.219,3.345c-0.815,0.93-1.876,1.397-3.19,1.397
		c-1.271,0-2.322-0.454-3.155-1.362c-0.833-0.905-1.249-2.034-1.249-3.381C245.492,243.771,245.909,242.642,246.746,241.737
		 M248.572,247.979c0.223,0.84,0.665,1.262,1.324,1.262c0.632,0,1.046-0.324,1.241-0.968c0.198-0.647,0.296-1.695,0.296-3.15
		c0-1.447-0.103-2.493-0.308-3.145c-0.208-0.647-0.612-0.971-1.219-0.971c-0.66,0-1.101,0.419-1.324,1.261
		c-0.145,0.564-0.218,1.512-0.218,2.854C248.364,246.482,248.434,247.435,248.572,247.979"/>
	<path fill="#036032" d="M255.145,249.108c0.356-0.045,0.619-0.14,0.785-0.288c0.171-0.148,0.256-0.446,0.256-0.89v-5.708
		c0-0.396-0.068-0.669-0.206-0.823c-0.135-0.153-0.414-0.253-0.835-0.306v-0.464h3.704v1.392c0.311-0.466,0.705-0.855,1.186-1.161
		c0.482-0.306,1.013-0.459,1.597-0.459c0.84,0,1.49,0.213,1.951,0.645c0.461,0.431,0.692,1.186,0.692,2.265v4.697
		c0,0.436,0.073,0.72,0.221,0.843c0.153,0.128,0.401,0.213,0.752,0.258v0.464h-4.589v-0.464c0.351-0.07,0.589-0.163,0.717-0.286
		c0.125-0.118,0.188-0.391,0.188-0.815v-4.705c0-0.444-0.045-0.775-0.13-0.996c-0.156-0.399-0.456-0.597-0.908-0.597
		c-0.339,0-0.65,0.12-0.933,0.364c-0.281,0.243-0.499,0.489-0.652,0.735v5.199c0,0.424,0.063,0.697,0.191,0.815
		c0.13,0.123,0.366,0.216,0.715,0.286v0.464h-4.702V249.108z"/>
	<path fill="#036032" d="M267.458,245.676c0.848-0.514,2.172-1.028,3.98-1.547v-1.414c0-0.574-0.123-1.003-0.369-1.276
		c-0.246-0.273-0.677-0.411-1.299-0.411c-0.351,0-0.639,0.063-0.865,0.196c-0.228,0.128-0.339,0.291-0.339,0.486
		c0,0.078,0.013,0.141,0.038,0.188c0.025,0.053,0.065,0.108,0.115,0.165l0.113,0.13c0.09,0.108,0.16,0.228,0.213,0.356
		c0.055,0.128,0.083,0.268,0.083,0.411c0,0.366-0.123,0.652-0.366,0.85c-0.246,0.198-0.529,0.298-0.855,0.298
		c-0.376,0-0.697-0.113-0.958-0.329c-0.263-0.223-0.396-0.542-0.396-0.958c0-0.745,0.354-1.334,1.061-1.768
		c0.705-0.436,1.572-0.652,2.601-0.652c1.108,0,2.034,0.208,2.779,0.634c0.735,0.431,1.103,1.219,1.103,2.37v4.707
		c0,0.138,0.04,0.258,0.113,0.354c0.07,0.098,0.156,0.145,0.241,0.145c0.075,0,0.148-0.013,0.206-0.043
		c0.06-0.028,0.153-0.105,0.283-0.231l0.293,0.409c-0.381,0.441-0.803,0.752-1.266,0.928c-0.293,0.115-0.599,0.173-0.928,0.173
		c-0.577,0-1.001-0.171-1.266-0.504c-0.155-0.191-0.263-0.474-0.334-0.848c-0.544,0.537-1.154,0.92-1.833,1.141
		c-0.414,0.141-0.823,0.211-1.221,0.211c-0.534,0-1.033-0.171-1.495-0.512c-0.466-0.336-0.697-0.863-0.697-1.58
		C266.192,246.882,266.613,246.19,267.458,245.676 M270.867,248.176c0.15-0.113,0.334-0.291,0.542-0.532v-2.844
		c-0.524,0.128-0.978,0.326-1.374,0.599c-0.667,0.464-0.998,1.053-0.998,1.768c0,0.426,0.095,0.747,0.286,0.966
		c0.196,0.218,0.414,0.328,0.657,0.328C270.295,248.462,270.591,248.367,270.867,248.176"/>
	<path fill="#036032" d="M275.778,249.108c0.344-0.083,0.587-0.191,0.732-0.328c0.14-0.135,0.211-0.419,0.211-0.85v-9.893
		c0-0.411-0.063-0.685-0.198-0.812c-0.135-0.128-0.381-0.233-0.745-0.316v-0.464h3.704v11.486c0,0.431,0.068,0.715,0.208,0.845
		c0.14,0.133,0.386,0.246,0.742,0.334v0.464h-4.654V249.108z"/>
	<path fill="#036032" d="M295.801,236.647c0.835,0.301,1.297,0.452,1.392,0.452c0.248,0,0.446-0.093,0.597-0.286
		c0.148-0.186,0.243-0.386,0.283-0.597h0.542v4.544h-0.497c-0.469-0.986-0.95-1.763-1.437-2.335c-0.915-1.046-1.951-1.57-3.107-1.57
		c-1.309,0-2.239,0.559-2.789,1.678c-0.547,1.123-0.825,2.633-0.825,4.524c0,1.389,0.166,2.533,0.489,3.431
		c0.602,1.683,1.723,2.525,3.363,2.525c1.003,0,1.936-0.278,2.801-0.835c0.497-0.323,1.081-0.84,1.753-1.547l0.582,0.474
		c-0.762,0.85-1.434,1.462-2.011,1.841c-1.031,0.677-2.177,1.016-3.436,1.016c-1.926,0-3.544-0.567-4.845-1.708
		c-1.444-1.259-2.167-2.954-2.167-5.083c0-2.114,0.69-3.822,2.069-5.133c1.301-1.226,2.889-1.838,4.772-1.838
		C294.146,236.199,294.966,236.346,295.801,236.647"/>
	<path fill="#036032" d="M301.57,241.737c0.833-0.905,1.886-1.357,3.15-1.357c1.294,0,2.35,0.461,3.172,1.387
		c0.825,0.923,1.236,2.041,1.236,3.355c0,1.297-0.406,2.413-1.219,3.345c-0.815,0.93-1.878,1.397-3.19,1.397
		c-1.271,0-2.322-0.454-3.155-1.362c-0.833-0.905-1.251-2.034-1.251-3.381C300.314,243.771,300.732,242.642,301.57,241.737
		 M303.396,247.979c0.223,0.84,0.665,1.262,1.324,1.262c0.632,0,1.046-0.324,1.241-0.968c0.196-0.647,0.296-1.695,0.296-3.15
		c0-1.447-0.103-2.493-0.309-3.145c-0.208-0.647-0.612-0.971-1.219-0.971c-0.66,0-1.101,0.419-1.327,1.261
		c-0.143,0.564-0.216,1.512-0.216,2.854C303.188,246.482,303.258,247.435,303.396,247.979"/>
	<path fill="#036032" d="M309.965,249.108c0.356-0.045,0.599-0.12,0.735-0.228c0.216-0.171,0.323-0.489,0.323-0.951v-5.708
		c0-0.409-0.073-0.685-0.218-0.835c-0.148-0.145-0.426-0.241-0.84-0.293v-0.464h3.704v1.392c0.323-0.424,0.637-0.752,0.943-0.986
		c0.567-0.424,1.196-0.634,1.888-0.634c0.782,0,1.389,0.183,1.823,0.549c0.241,0.211,0.469,0.549,0.685,1.023h0.133
		c0.369-0.449,0.722-0.785,1.058-1.013c0.537-0.374,1.116-0.559,1.748-0.559c0.687,0,1.292,0.216,1.816,0.652
		c0.527,0.436,0.787,1.126,0.787,2.071v4.883c0,0.449,0.075,0.735,0.221,0.858c0.145,0.125,0.404,0.203,0.772,0.243v0.464h-4.637
		v-0.464c0.356-0.053,0.604-0.138,0.745-0.261c0.14-0.126,0.211-0.404,0.211-0.84v-4.705c0-0.507-0.075-0.898-0.226-1.179
		c-0.15-0.276-0.431-0.414-0.853-0.414c-0.336,0-0.692,0.15-1.066,0.456c-0.371,0.311-0.557,0.521-0.557,0.642v5.199
		c0,0.424,0.063,0.697,0.193,0.815c0.123,0.123,0.364,0.216,0.715,0.286v0.464H315.5v-0.464c0.344-0.045,0.587-0.128,0.735-0.253
		c0.145-0.123,0.218-0.406,0.218-0.848v-4.705c0-0.494-0.07-0.883-0.208-1.166c-0.14-0.286-0.429-0.426-0.87-0.426
		c-0.401,0-0.772,0.163-1.116,0.489c-0.344,0.323-0.514,0.527-0.514,0.609v5.199c0,0.424,0.058,0.697,0.181,0.815
		c0.12,0.123,0.359,0.216,0.715,0.286v0.464h-4.674V249.108z"/>
	<path fill="#036032" d="M326.242,249.108c0.356-0.045,0.599-0.12,0.735-0.228c0.216-0.171,0.323-0.489,0.323-0.951v-5.708
		c0-0.409-0.073-0.685-0.218-0.835c-0.148-0.145-0.426-0.241-0.84-0.293v-0.464h3.704v1.392c0.321-0.424,0.637-0.752,0.943-0.986
		c0.567-0.424,1.196-0.634,1.888-0.634c0.782,0,1.389,0.183,1.823,0.549c0.241,0.211,0.469,0.549,0.685,1.023h0.133
		c0.369-0.449,0.722-0.785,1.058-1.013c0.537-0.374,1.116-0.559,1.748-0.559c0.687,0,1.289,0.216,1.816,0.652
		c0.527,0.436,0.787,1.126,0.787,2.071v4.883c0,0.449,0.073,0.735,0.221,0.858c0.145,0.125,0.404,0.203,0.772,0.243v0.464h-4.639
		v-0.464c0.356-0.053,0.607-0.138,0.745-0.261c0.143-0.126,0.213-0.404,0.213-0.84v-4.705c0-0.507-0.075-0.898-0.226-1.179
		c-0.15-0.276-0.434-0.414-0.853-0.414c-0.336,0-0.692,0.15-1.066,0.456c-0.371,0.311-0.557,0.521-0.557,0.642v5.199
		c0,0.424,0.063,0.697,0.191,0.815c0.125,0.123,0.366,0.216,0.717,0.286v0.464h-4.569v-0.464c0.344-0.045,0.587-0.128,0.735-0.253
		c0.145-0.123,0.218-0.406,0.218-0.848v-4.705c0-0.494-0.07-0.883-0.208-1.166c-0.143-0.286-0.431-0.426-0.87-0.426
		c-0.401,0-0.772,0.163-1.116,0.489c-0.344,0.323-0.514,0.527-0.514,0.609v5.199c0,0.424,0.058,0.697,0.181,0.815
		c0.12,0.123,0.359,0.216,0.715,0.286v0.464h-4.674V249.108z"/>
	<path fill="#036032" d="M342.513,249.108c0.344-0.058,0.579-0.143,0.707-0.258c0.193-0.171,0.286-0.476,0.286-0.92v-5.708
		c0-0.399-0.065-0.665-0.201-0.81c-0.133-0.143-0.396-0.248-0.792-0.319v-0.464h3.752v7.375c0,0.426,0.06,0.7,0.188,0.818
		c0.13,0.12,0.366,0.216,0.717,0.286v0.464h-4.657V249.108z M343.817,236.592c0.296-0.293,0.655-0.441,1.071-0.441
		c0.414,0,0.77,0.148,1.066,0.441c0.296,0.296,0.441,0.65,0.441,1.066c0,0.419-0.145,0.772-0.441,1.068
		c-0.296,0.293-0.652,0.439-1.066,0.439c-0.416,0-0.775-0.145-1.071-0.439c-0.296-0.296-0.444-0.649-0.444-1.068
		C343.373,237.242,343.521,236.888,343.817,236.592"/>
	<path fill="#036032" d="M347.942,241.481v-0.539c0.173-0.158,0.386-0.349,0.639-0.562c0.336-0.308,0.655-0.629,0.955-0.955
		c0.589-0.647,1.126-1.339,1.61-2.079h0.499v3.283h1.858v0.853h-1.858v5.843c0,0.271,0.04,0.499,0.12,0.682
		c0.128,0.283,0.336,0.426,0.632,0.426c0.253,0,0.464-0.09,0.639-0.268c0.171-0.183,0.341-0.429,0.512-0.747l0.469,0.231
		c-0.226,0.529-0.499,0.96-0.818,1.299c-0.562,0.584-1.241,0.88-2.051,0.88c-0.456,0-0.855-0.085-1.199-0.256
		c-0.66-0.328-0.996-0.925-0.998-1.793v-6.297H347.942z"/>
	<path fill="#036032" d="M354.449,241.481v-0.539c0.173-0.158,0.384-0.349,0.637-0.562c0.339-0.308,0.657-0.629,0.958-0.955
		c0.589-0.647,1.123-1.339,1.61-2.079h0.497v3.283h1.861v0.853h-1.861v5.843c0,0.271,0.043,0.499,0.123,0.682
		c0.128,0.283,0.336,0.426,0.632,0.426c0.253,0,0.464-0.09,0.637-0.268c0.171-0.183,0.344-0.429,0.514-0.747l0.469,0.231
		c-0.228,0.529-0.501,0.96-0.818,1.299c-0.562,0.584-1.241,0.88-2.051,0.88c-0.459,0-0.858-0.085-1.199-0.256
		c-0.662-0.328-0.996-0.925-0.998-1.793v-6.297H354.449z"/>
	<path fill="#036032" d="M362.267,241.636c0.8-0.823,1.766-1.234,2.891-1.234c0.639,0,1.249,0.165,1.816,0.499
		c0.564,0.339,1.001,0.803,1.307,1.397c0.231,0.449,0.389,1.028,0.476,1.746c0.045,0.334,0.068,0.592,0.068,0.767h-4.988
		c0.045,0.777,0.173,1.45,0.381,2.021c0.381,1.068,1.056,1.602,2.019,1.602c0.456,0,0.89-0.143,1.299-0.429
		c0.248-0.171,0.559-0.459,0.925-0.863l0.451,0.273c-0.607,0.991-1.307,1.675-2.102,2.061c-0.517,0.246-1.108,0.371-1.778,0.371
		c-0.96,0-1.861-0.379-2.701-1.129c-0.84-0.755-1.261-1.956-1.261-3.606C361.071,243.62,361.467,242.461,362.267,241.636
		 M366.423,244.088c-0.013-1.146-0.103-1.941-0.268-2.397c-0.168-0.456-0.499-0.684-0.996-0.684c-0.512,0-0.86,0.261-1.048,0.787
		c-0.191,0.524-0.296,1.289-0.321,2.295H366.423z"/>
	<path fill="#036032" d="M370.935,241.636c0.8-0.823,1.766-1.234,2.891-1.234c0.642,0,1.249,0.165,1.816,0.499
		c0.564,0.339,1.001,0.803,1.307,1.397c0.231,0.449,0.389,1.028,0.479,1.746c0.043,0.334,0.065,0.592,0.065,0.767h-4.988
		c0.045,0.777,0.173,1.45,0.381,2.021c0.381,1.068,1.056,1.602,2.019,1.602c0.459,0,0.893-0.143,1.299-0.429
		c0.251-0.171,0.559-0.459,0.928-0.863l0.449,0.273c-0.607,0.991-1.307,1.675-2.101,2.061c-0.517,0.246-1.108,0.371-1.778,0.371
		c-0.96,0-1.861-0.379-2.701-1.129c-0.84-0.755-1.261-1.956-1.261-3.606C369.739,243.62,370.138,242.461,370.935,241.636
		 M375.091,244.088c-0.013-1.146-0.103-1.941-0.268-2.397c-0.168-0.456-0.499-0.684-0.996-0.684c-0.512,0-0.86,0.261-1.048,0.787
		c-0.191,0.524-0.296,1.289-0.321,2.295H375.091z"/>
	
		<line fill="none" stroke="#75797B" stroke-width="0.7263" stroke-miterlimit="10" x1="391.438" y1="302.081" x2="480.661" y2="302.081"/>
	<path fill="#1C1D1A" d="M396.754,310.824c0,0.68-0.243,1.229-0.73,1.653c-0.479,0.426-1.139,0.639-1.969,0.639
		c-0.481,0-0.898-0.05-1.254-0.15c-0.361-0.1-0.695-0.228-1.006-0.381v-1.655h0.163c0.309,0.291,0.657,0.519,1.041,0.677
		c0.381,0.158,0.747,0.233,1.101,0.233c0.093,0,0.211-0.01,0.359-0.028c0.148-0.018,0.271-0.048,0.364-0.09
		c0.115-0.058,0.208-0.123,0.281-0.211c0.075-0.08,0.11-0.206,0.11-0.369c0-0.153-0.053-0.283-0.16-0.391
		c-0.105-0.11-0.266-0.196-0.471-0.253c-0.218-0.06-0.449-0.12-0.695-0.173c-0.238-0.055-0.466-0.125-0.682-0.206
		c-0.487-0.188-0.838-0.446-1.051-0.767s-0.321-0.722-0.321-1.201c0-0.645,0.243-1.166,0.725-1.572
		c0.484-0.406,1.106-0.612,1.866-0.612c0.381,0,0.762,0.048,1.134,0.135c0.371,0.088,0.692,0.196,0.966,0.331v1.587h-0.16
		c-0.231-0.223-0.519-0.406-0.858-0.559c-0.339-0.148-0.682-0.226-1.036-0.226c-0.125,0-0.251,0.013-0.374,0.033
		c-0.123,0.02-0.243,0.055-0.354,0.113c-0.103,0.048-0.191,0.115-0.263,0.211c-0.07,0.095-0.11,0.203-0.11,0.321
		c0,0.183,0.06,0.323,0.178,0.419c0.115,0.098,0.336,0.191,0.66,0.268c0.216,0.05,0.416,0.103,0.614,0.15
		c0.196,0.053,0.406,0.12,0.629,0.206c0.446,0.176,0.775,0.406,0.986,0.705C396.648,309.962,396.754,310.348,396.754,310.824"/>
	<path fill="#1C1D1A" d="M400.346,312.439c-0.073,0.07-0.166,0.15-0.278,0.246c-0.113,0.095-0.218,0.173-0.313,0.228
		c-0.14,0.073-0.283,0.128-0.431,0.163c-0.148,0.035-0.308,0.055-0.484,0.055c-0.419,0-0.765-0.156-1.046-0.459
		c-0.278-0.306-0.421-0.697-0.421-1.171c0-0.384,0.075-0.692,0.216-0.933c0.145-0.243,0.346-0.431,0.607-0.569
		c0.258-0.141,0.582-0.238,0.965-0.298c0.384-0.058,0.782-0.1,1.196-0.128v-0.03c0-0.283-0.1-0.484-0.298-0.594
		c-0.196-0.108-0.489-0.163-0.87-0.163c-0.231,0-0.476,0.048-0.74,0.145c-0.263,0.095-0.451,0.173-0.564,0.223h-0.13v-1.251
		c0.148-0.05,0.389-0.103,0.722-0.168c0.334-0.06,0.67-0.093,1.006-0.093c0.795,0,1.369,0.145,1.725,0.436
		c0.354,0.293,0.529,0.75,0.529,1.374v3.539h-1.389V312.439z M400.346,311.632v-1.081c-0.188,0.018-0.394,0.043-0.612,0.075
		c-0.223,0.03-0.389,0.07-0.504,0.113c-0.14,0.053-0.246,0.128-0.321,0.228c-0.075,0.1-0.113,0.233-0.113,0.394
		c0,0.11,0.01,0.198,0.028,0.266c0.015,0.065,0.053,0.133,0.113,0.193c0.063,0.06,0.133,0.105,0.216,0.135
		c0.085,0.033,0.213,0.043,0.389,0.043c0.14,0,0.283-0.033,0.426-0.1C400.113,311.832,400.239,311.739,400.346,311.632"/>
	<path fill="#1C1D1A" d="M407.38,312.99h-1.407v-0.574c-0.258,0.233-0.497,0.414-0.712,0.534c-0.213,0.123-0.472,0.183-0.77,0.183
		c-0.482,0-0.853-0.163-1.113-0.494c-0.258-0.331-0.389-0.82-0.389-1.465v-3.385h1.404v2.581c0,0.263,0.01,0.482,0.023,0.654
		c0.013,0.176,0.048,0.319,0.098,0.434c0.048,0.113,0.125,0.198,0.226,0.248c0.098,0.055,0.238,0.08,0.416,0.08
		c0.12,0,0.253-0.025,0.399-0.08c0.146-0.05,0.286-0.13,0.419-0.231v-3.687h1.407V312.99z"/>
	<path fill="#1C1D1A" d="M412.954,312.99h-1.407v-0.544c-0.241,0.238-0.466,0.411-0.677,0.522c-0.208,0.11-0.451,0.166-0.725,0.166
		c-0.532,0-0.955-0.243-1.276-0.732c-0.318-0.487-0.479-1.144-0.479-1.971c0-0.441,0.055-0.833,0.16-1.174
		c0.11-0.341,0.256-0.634,0.441-0.878c0.178-0.231,0.394-0.414,0.642-0.539c0.251-0.128,0.504-0.193,0.755-0.193
		c0.263,0,0.477,0.035,0.645,0.1c0.168,0.065,0.339,0.15,0.514,0.253v-2.217h1.407V312.99z M411.547,311.558v-2.555
		c-0.1-0.048-0.203-0.085-0.311-0.105c-0.108-0.023-0.208-0.033-0.298-0.033c-0.369,0-0.642,0.135-0.828,0.409
		c-0.183,0.276-0.276,0.655-0.276,1.141c0,0.509,0.073,0.88,0.221,1.111c0.148,0.231,0.386,0.346,0.712,0.346
		c0.125,0,0.261-0.03,0.404-0.088C411.313,311.729,411.439,311.653,411.547,311.558"/>
	<path fill="#1C1D1A" d="M415.722,307.051h-1.482v-1.266h1.482V307.051z M415.682,312.992h-1.404v-5.201h1.404V312.992z"/>
	<path fill="#1C1D1A" d="M424.762,310.879c0,0.334-0.055,0.632-0.171,0.895c-0.113,0.261-0.266,0.479-0.464,0.652
		c-0.228,0.203-0.479,0.349-0.752,0.434c-0.273,0.088-0.622,0.13-1.041,0.13h-2.528v-6.896h2.25c0.464,0,0.808,0.02,1.023,0.055
		c0.218,0.038,0.431,0.12,0.644,0.248c0.221,0.128,0.384,0.308,0.494,0.534c0.105,0.223,0.16,0.477,0.16,0.767
		c0,0.331-0.075,0.624-0.223,0.88c-0.148,0.253-0.356,0.454-0.624,0.594v0.04c0.379,0.085,0.677,0.273,0.898,0.554
		C424.654,310.047,424.762,310.418,424.762,310.879 M422.846,308.043c0-0.115-0.02-0.226-0.07-0.341
		c-0.048-0.115-0.135-0.201-0.256-0.256c-0.108-0.048-0.246-0.075-0.406-0.083c-0.16-0.002-0.389-0.005-0.682-0.005h-0.14v1.459
		h0.233c0.236,0,0.436-0.005,0.604-0.015c0.166-0.008,0.296-0.04,0.391-0.09c0.135-0.073,0.223-0.163,0.266-0.276
		C422.828,308.324,422.846,308.193,422.846,308.043 M423.209,310.852c0-0.218-0.035-0.389-0.105-0.507
		c-0.07-0.12-0.193-0.211-0.364-0.268c-0.118-0.038-0.278-0.06-0.484-0.063c-0.201-0.002-0.416-0.005-0.639-0.005h-0.326v1.718
		h0.108c0.421,0,0.72,0,0.903-0.005c0.178-0.003,0.346-0.043,0.499-0.12c0.155-0.075,0.263-0.178,0.321-0.306
		C423.179,311.165,423.209,311.017,423.209,310.852"/>
	<path fill="#1C1D1A" d="M430.155,312.99h-1.404v-0.574c-0.261,0.233-0.497,0.414-0.712,0.534c-0.216,0.123-0.471,0.183-0.77,0.183
		c-0.482,0-0.855-0.163-1.113-0.494c-0.261-0.331-0.391-0.82-0.391-1.465v-3.385h1.404v2.581c0,0.263,0.01,0.482,0.023,0.654
		c0.013,0.176,0.048,0.319,0.1,0.434c0.048,0.113,0.125,0.198,0.223,0.248c0.1,0.055,0.238,0.08,0.419,0.08
		c0.118,0,0.253-0.025,0.396-0.08c0.146-0.05,0.286-0.13,0.421-0.231v-3.687h1.404V312.99z"/>
	<path fill="#1C1D1A" d="M432.921,307.051h-1.482v-1.266h1.482V307.051z M432.883,312.992h-1.404v-5.201h1.404V312.992z"/>
	<rect x="434.2" y="305.785" fill="#1C1D1A" width="1.407" height="7.207"/>
	<path fill="#1C1D1A" d="M441.175,312.99h-1.404v-0.544c-0.241,0.238-0.466,0.411-0.677,0.522c-0.208,0.11-0.454,0.166-0.725,0.166
		c-0.532,0-0.955-0.243-1.276-0.732c-0.318-0.487-0.479-1.144-0.479-1.971c0-0.441,0.055-0.833,0.16-1.174
		c0.11-0.341,0.256-0.634,0.441-0.878c0.178-0.231,0.394-0.414,0.642-0.539c0.251-0.128,0.504-0.193,0.755-0.193
		c0.263,0,0.477,0.035,0.644,0.1c0.168,0.065,0.339,0.15,0.514,0.253v-2.217h1.404V312.99z M439.771,311.558v-2.555
		c-0.1-0.048-0.203-0.085-0.311-0.105c-0.11-0.023-0.211-0.033-0.298-0.033c-0.369,0-0.642,0.135-0.828,0.409
		c-0.183,0.276-0.276,0.655-0.276,1.141c0,0.509,0.073,0.88,0.221,1.111c0.148,0.231,0.386,0.346,0.712,0.346
		c0.125,0,0.258-0.03,0.404-0.088C439.535,311.729,439.663,311.653,439.771,311.558"/>
	<path fill="#1C1D1A" d="M443.945,307.051h-1.482v-1.266h1.482V307.051z M443.907,312.992h-1.407v-5.201h1.407V312.992z"/>
	<path fill="#1C1D1A" d="M449.617,312.99h-1.407v-2.581c0-0.208-0.008-0.419-0.028-0.627c-0.018-0.211-0.048-0.361-0.093-0.461
		c-0.05-0.113-0.128-0.198-0.228-0.248c-0.1-0.053-0.236-0.08-0.416-0.08c-0.128,0-0.258,0.025-0.389,0.075
		c-0.133,0.05-0.273,0.128-0.426,0.236v3.686h-1.404v-5.201h1.404v0.574c0.251-0.231,0.487-0.411,0.717-0.532
		c0.228-0.126,0.487-0.186,0.765-0.186c0.471,0,0.84,0.166,1.106,0.489c0.263,0.326,0.399,0.82,0.399,1.467V312.99z"/>
	<path fill="#1C1D1A" d="M455.155,312.393c0,0.489-0.058,0.898-0.178,1.231c-0.115,0.336-0.278,0.597-0.487,0.782
		c-0.213,0.193-0.466,0.334-0.765,0.416c-0.293,0.085-0.632,0.128-1.003,0.128c-0.306,0-0.604-0.025-0.9-0.068
		c-0.293-0.04-0.547-0.093-0.762-0.156v-1.304h0.171c0.168,0.083,0.379,0.155,0.624,0.223c0.248,0.065,0.466,0.1,0.662,0.1
		c0.258,0,0.469-0.033,0.632-0.085c0.16-0.058,0.286-0.14,0.371-0.246c0.08-0.098,0.138-0.226,0.175-0.381
		c0.035-0.153,0.053-0.339,0.053-0.554v-0.098c-0.166,0.166-0.356,0.296-0.559,0.389c-0.203,0.098-0.431,0.148-0.685,0.148
		c-0.609,0-1.081-0.223-1.417-0.659c-0.329-0.441-0.497-1.106-0.497-2.001c0-0.429,0.053-0.8,0.15-1.113
		c0.103-0.311,0.243-0.582,0.431-0.813c0.171-0.221,0.381-0.386,0.632-0.506c0.251-0.12,0.504-0.181,0.767-0.181
		c0.233,0,0.449,0.035,0.645,0.103c0.193,0.063,0.366,0.155,0.527,0.271l0.05-0.231h1.362V312.393z M453.749,311.352v-2.357
		c-0.08-0.04-0.178-0.073-0.296-0.095c-0.115-0.025-0.221-0.035-0.313-0.035c-0.369,0-0.642,0.128-0.828,0.379
		c-0.183,0.248-0.276,0.599-0.276,1.053c0,0.499,0.08,0.848,0.238,1.046c0.153,0.198,0.386,0.296,0.695,0.296
		c0.138,0,0.276-0.025,0.411-0.08C453.515,311.508,453.638,311.438,453.749,311.352"/>
	<path fill="#1C1D1A" d="M461.901,313.124c-0.429,0-0.828-0.075-1.194-0.228c-0.364-0.148-0.677-0.376-0.94-0.672
		c-0.263-0.301-0.464-0.675-0.609-1.124c-0.143-0.446-0.216-0.966-0.216-1.55c0-0.547,0.068-1.041,0.206-1.49
		c0.14-0.441,0.339-0.825,0.602-1.144c0.253-0.306,0.564-0.539,0.935-0.705c0.374-0.168,0.78-0.253,1.219-0.253
		c0.246,0,0.466,0.018,0.662,0.05c0.196,0.033,0.376,0.073,0.542,0.125c0.173,0.058,0.331,0.125,0.474,0.198
		c0.143,0.073,0.263,0.14,0.369,0.201v1.673h-0.168c-0.075-0.075-0.163-0.163-0.276-0.261c-0.11-0.105-0.236-0.203-0.376-0.304
		c-0.14-0.095-0.296-0.181-0.461-0.248c-0.168-0.065-0.344-0.1-0.534-0.1c-0.211,0-0.409,0.04-0.599,0.12
		c-0.188,0.075-0.366,0.206-0.524,0.386c-0.156,0.178-0.278,0.411-0.374,0.7c-0.093,0.291-0.143,0.639-0.143,1.056
		c0,0.431,0.053,0.79,0.155,1.081c0.103,0.288,0.231,0.519,0.389,0.682c0.158,0.171,0.334,0.291,0.529,0.364
		c0.193,0.073,0.386,0.11,0.574,0.11c0.183,0,0.361-0.033,0.539-0.098c0.178-0.063,0.344-0.15,0.494-0.263
		c0.125-0.088,0.243-0.183,0.351-0.286c0.11-0.1,0.201-0.188,0.271-0.261h0.153v1.648c-0.143,0.075-0.281,0.148-0.414,0.218
		c-0.133,0.068-0.273,0.125-0.416,0.176c-0.188,0.065-0.369,0.113-0.532,0.145C462.42,313.109,462.192,313.124,461.901,313.124"/>
	<path fill="#1C1D1A" d="M469.44,310.395c0,0.855-0.208,1.527-0.627,2.019c-0.421,0.494-1.008,0.737-1.766,0.737
		c-0.757,0-1.349-0.243-1.765-0.737c-0.421-0.491-0.629-1.164-0.629-2.019c0-0.863,0.208-1.54,0.632-2.031
		c0.421-0.491,1.008-0.735,1.763-0.735c0.762,0,1.349,0.246,1.766,0.74C469.232,308.865,469.44,309.537,469.44,310.395
		 M467.718,311.656c0.09-0.13,0.155-0.291,0.203-0.479c0.045-0.186,0.065-0.444,0.065-0.775c0-0.306-0.02-0.562-0.065-0.77
		c-0.048-0.208-0.113-0.371-0.198-0.494c-0.083-0.128-0.181-0.216-0.296-0.268c-0.12-0.055-0.243-0.08-0.379-0.08
		c-0.135,0-0.258,0.022-0.361,0.065c-0.105,0.043-0.206,0.13-0.301,0.261c-0.085,0.118-0.153,0.286-0.206,0.494
		c-0.05,0.211-0.078,0.474-0.078,0.792c0,0.283,0.025,0.532,0.068,0.737c0.045,0.208,0.11,0.376,0.196,0.504
		c0.083,0.12,0.181,0.211,0.296,0.263c0.115,0.055,0.248,0.083,0.399,0.083c0.125,0,0.246-0.025,0.361-0.075
		C467.537,311.862,467.635,311.776,467.718,311.656"/>
	<path fill="#1C1D1A" d="M474.697,312.99h-1.407v-0.544c-0.241,0.238-0.466,0.411-0.677,0.522c-0.208,0.11-0.451,0.166-0.725,0.166
		c-0.532,0-0.955-0.243-1.276-0.732c-0.318-0.487-0.479-1.144-0.479-1.971c0-0.441,0.055-0.833,0.16-1.174
		c0.11-0.341,0.258-0.634,0.444-0.878c0.175-0.231,0.391-0.414,0.642-0.539c0.248-0.128,0.502-0.193,0.752-0.193
		c0.263,0,0.477,0.035,0.645,0.1c0.168,0.065,0.339,0.15,0.514,0.253v-2.217h1.407V312.99z M473.291,311.558v-2.555
		c-0.1-0.048-0.203-0.085-0.311-0.105c-0.108-0.023-0.208-0.033-0.298-0.033c-0.369,0-0.642,0.135-0.828,0.409
		c-0.183,0.276-0.276,0.655-0.276,1.141c0,0.509,0.073,0.88,0.221,1.111c0.148,0.231,0.386,0.346,0.712,0.346
		c0.125,0,0.261-0.03,0.406-0.088C473.057,311.729,473.183,311.653,473.291,311.558"/>
	<path fill="#1C1D1A" d="M480.322,310.699h-3.208c0.023,0.406,0.151,0.72,0.391,0.935c0.241,0.216,0.594,0.323,1.061,0.323
		c0.296,0,0.582-0.063,0.86-0.191c0.281-0.128,0.497-0.261,0.657-0.406h0.158v1.337c-0.318,0.153-0.614,0.261-0.893,0.328
		c-0.283,0.07-0.592,0.103-0.933,0.103c-0.878,0-1.547-0.236-2.016-0.702c-0.466-0.471-0.7-1.138-0.7-2.006
		c0-0.858,0.221-1.54,0.665-2.039c0.441-0.504,1.048-0.752,1.818-0.752c0.71,0,1.244,0.211,1.605,0.64
		c0.356,0.426,0.534,1.043,0.534,1.846V310.699z M478.931,309.719c-0.01-0.346-0.08-0.609-0.218-0.785
		c-0.138-0.176-0.354-0.263-0.642-0.263c-0.273,0-0.494,0.08-0.667,0.248c-0.173,0.165-0.268,0.434-0.291,0.8H478.931z"/>
	<rect x="411.283" y="215.018" fill="#1C1D1A" width="67.269" height="68.242"/>
	<rect x="408.756" y="211.437" fill="#BDBFC3" width="66.504" height="69.175"/>
	<path fill="#008242" d="M479.949,215.512h-6.794c-0.243,0-0.439-0.198-0.439-0.439v-0.206c0-0.243,0.196-0.439,0.439-0.439h6.794
		c0.243,0,0.439,0.196,0.439,0.439v0.206C480.388,215.314,480.193,215.512,479.949,215.512"/>
	<path fill="#686968" d="M473.285,215.757c-0.431,0-0.782-0.331-0.782-0.74c0-0.409,0.351-0.74,0.782-0.74h0.649
		c-0.208-0.208-0.494-0.346-0.82-0.346c-0.634,0-1.146,0.486-1.146,1.086c0,0.597,0.512,1.083,1.146,1.083
		c0.326,0,0.612-0.135,0.82-0.344H473.285z"/>
	<path fill="#008242" d="M479.949,219.628h-6.794c-0.243,0-0.439-0.195-0.439-0.439v-0.206c0-0.241,0.196-0.439,0.439-0.439h6.794
		c0.243,0,0.439,0.198,0.439,0.439v0.206C480.388,219.432,480.193,219.628,479.949,219.628"/>
	<path fill="#686968" d="M473.285,219.872c-0.431,0-0.782-0.331-0.782-0.74c0-0.409,0.351-0.74,0.782-0.74h0.649
		c-0.208-0.208-0.494-0.346-0.82-0.346c-0.634,0-1.146,0.486-1.146,1.086s0.512,1.086,1.146,1.086c0.326,0,0.612-0.138,0.82-0.346
		H473.285z"/>
	<path fill="#008242" d="M479.949,223.661h-6.794c-0.243,0-0.439-0.195-0.439-0.439v-0.206c0-0.243,0.196-0.439,0.439-0.439h6.794
		c0.243,0,0.439,0.196,0.439,0.439v0.206C480.388,223.466,480.193,223.661,479.949,223.661"/>
	<path fill="#686968" d="M473.285,223.906c-0.431,0-0.782-0.331-0.782-0.74c0-0.409,0.351-0.74,0.782-0.74h0.649
		c-0.208-0.208-0.494-0.346-0.82-0.346c-0.634,0-1.146,0.486-1.146,1.086s0.512,1.083,1.146,1.083c0.326,0,0.612-0.135,0.82-0.344
		H473.285z"/>
	<path fill="#008242" d="M479.949,227.501h-6.794c-0.243,0-0.439-0.198-0.439-0.439v-0.206c0-0.243,0.196-0.439,0.439-0.439h6.794
		c0.243,0,0.439,0.196,0.439,0.439v0.206C480.388,227.303,480.193,227.501,479.949,227.501"/>
	<path fill="#686968" d="M473.285,227.746c-0.431,0-0.782-0.331-0.782-0.74c0-0.409,0.351-0.742,0.782-0.742h0.649
		c-0.208-0.208-0.494-0.344-0.82-0.344c-0.634,0-1.146,0.486-1.146,1.086c0,0.597,0.512,1.083,1.146,1.083
		c0.326,0,0.612-0.135,0.82-0.344H473.285z"/>
	<path fill="#008242" d="M479.949,231.322h-6.794c-0.243,0-0.439-0.198-0.439-0.439v-0.206c0-0.243,0.196-0.439,0.439-0.439h6.794
		c0.243,0,0.439,0.196,0.439,0.439v0.206C480.388,231.124,480.193,231.322,479.949,231.322"/>
	<path fill="#686968" d="M473.285,231.567c-0.431,0-0.782-0.331-0.782-0.74c0-0.409,0.351-0.74,0.782-0.74h0.649
		c-0.208-0.208-0.494-0.346-0.82-0.346c-0.634,0-1.146,0.486-1.146,1.086s0.512,1.083,1.146,1.083c0.326,0,0.612-0.135,0.82-0.344
		H473.285z"/>
	<path fill="#008242" d="M479.949,235.189h-6.794c-0.243,0-0.439-0.198-0.439-0.439v-0.206c0-0.243,0.196-0.439,0.439-0.439h6.794
		c0.243,0,0.439,0.196,0.439,0.439v0.206C480.388,234.991,480.193,235.189,479.949,235.189"/>
	<path fill="#686968" d="M473.285,235.434c-0.431,0-0.782-0.331-0.782-0.74c0-0.409,0.351-0.74,0.782-0.74h0.649
		c-0.208-0.208-0.494-0.346-0.82-0.346c-0.634,0-1.146,0.486-1.146,1.086s0.512,1.083,1.146,1.083c0.326,0,0.612-0.135,0.82-0.344
		H473.285z"/>
	<path fill="#008242" d="M479.949,239.204h-6.794c-0.243,0-0.439-0.198-0.439-0.439v-0.206c0-0.243,0.196-0.439,0.439-0.439h6.794
		c0.243,0,0.439,0.196,0.439,0.439v0.206C480.388,239.006,480.193,239.204,479.949,239.204"/>
	<path fill="#686968" d="M473.285,239.449c-0.431,0-0.782-0.331-0.782-0.74c0-0.409,0.351-0.742,0.782-0.742h0.649
		c-0.208-0.208-0.494-0.344-0.82-0.344c-0.634,0-1.146,0.486-1.146,1.086c0,0.597,0.512,1.083,1.146,1.083
		c0.326,0,0.612-0.135,0.82-0.344H473.285z"/>
	<path fill="#008242" d="M479.949,243.246h-6.794c-0.243,0-0.439-0.198-0.439-0.439v-0.206c0-0.243,0.196-0.439,0.439-0.439h6.794
		c0.243,0,0.439,0.196,0.439,0.439v0.206C480.388,243.048,480.193,243.246,479.949,243.246"/>
	<path fill="#686968" d="M473.285,243.491c-0.431,0-0.782-0.331-0.782-0.74c0-0.409,0.351-0.74,0.782-0.74h0.649
		c-0.208-0.208-0.494-0.346-0.82-0.346c-0.634,0-1.146,0.486-1.146,1.086c0,0.597,0.512,1.083,1.146,1.083
		c0.326,0,0.612-0.135,0.82-0.344H473.285z"/>
	<path fill="#008242" d="M479.949,247.27h-6.794c-0.243,0-0.439-0.198-0.439-0.439v-0.206c0-0.243,0.196-0.439,0.439-0.439h6.794
		c0.243,0,0.439,0.196,0.439,0.439v0.206C480.388,247.072,480.193,247.27,479.949,247.27"/>
	<path fill="#686968" d="M473.285,247.515c-0.431,0-0.782-0.331-0.782-0.74c0-0.409,0.351-0.74,0.782-0.74h0.649
		c-0.208-0.208-0.494-0.346-0.82-0.346c-0.634,0-1.146,0.486-1.146,1.086s0.512,1.083,1.146,1.083c0.326,0,0.612-0.135,0.82-0.344
		H473.285z"/>
	<path fill="#008242" d="M479.949,251.1h-6.794c-0.243,0-0.439-0.198-0.439-0.439v-0.206c0-0.243,0.196-0.439,0.439-0.439h6.794
		c0.243,0,0.439,0.196,0.439,0.439v0.206C480.388,250.902,480.193,251.1,479.949,251.1"/>
	<path fill="#686968" d="M473.285,251.345c-0.431,0-0.782-0.331-0.782-0.74c0-0.409,0.351-0.74,0.782-0.74h0.649
		c-0.208-0.208-0.494-0.346-0.82-0.346c-0.634,0-1.146,0.486-1.146,1.086c0,0.597,0.512,1.083,1.146,1.083
		c0.326,0,0.612-0.135,0.82-0.344H473.285z"/>
	<path fill="#008242" d="M479.949,254.967h-6.794c-0.243,0-0.439-0.198-0.439-0.439v-0.206c0-0.243,0.196-0.439,0.439-0.439h6.794
		c0.243,0,0.439,0.196,0.439,0.439v0.206C480.388,254.769,480.193,254.967,479.949,254.967"/>
	<path fill="#686968" d="M473.285,255.212c-0.431,0-0.782-0.331-0.782-0.74c0-0.409,0.351-0.74,0.782-0.74h0.649
		c-0.208-0.208-0.494-0.346-0.82-0.346c-0.634,0-1.146,0.486-1.146,1.086c0,0.597,0.512,1.083,1.146,1.083
		c0.326,0,0.612-0.135,0.82-0.344H473.285z"/>
	<path fill="#008242" d="M479.949,258.816h-6.794c-0.243,0-0.439-0.198-0.439-0.439v-0.206c0-0.243,0.196-0.439,0.439-0.439h6.794
		c0.243,0,0.439,0.196,0.439,0.439v0.206C480.388,258.618,480.193,258.816,479.949,258.816"/>
	<path fill="#686968" d="M473.285,259.061c-0.431,0-0.782-0.331-0.782-0.74c0-0.409,0.351-0.74,0.782-0.74h0.649
		c-0.208-0.208-0.494-0.346-0.82-0.346c-0.634,0-1.146,0.486-1.146,1.086c0,0.597,0.512,1.083,1.146,1.083
		c0.326,0,0.612-0.135,0.82-0.344H473.285z"/>
	<path fill="#008242" d="M479.949,262.756h-6.794c-0.243,0-0.439-0.195-0.439-0.439v-0.206c0-0.243,0.196-0.439,0.439-0.439h6.794
		c0.243,0,0.439,0.196,0.439,0.439v0.206C480.388,262.56,480.193,262.756,479.949,262.756"/>
	<path fill="#686968" d="M473.285,263.001c-0.431,0-0.782-0.331-0.782-0.74c0-0.409,0.351-0.74,0.782-0.74h0.649
		c-0.208-0.208-0.494-0.346-0.82-0.346c-0.634,0-1.146,0.486-1.146,1.086s0.512,1.083,1.146,1.083c0.326,0,0.612-0.135,0.82-0.344
		H473.285z"/>
	<path fill="#008242" d="M479.949,266.78h-6.794c-0.243,0-0.439-0.195-0.439-0.439v-0.206c0-0.243,0.196-0.439,0.439-0.439h6.794
		c0.243,0,0.439,0.196,0.439,0.439v0.206C480.388,266.584,480.193,266.78,479.949,266.78"/>
	<path fill="#686968" d="M473.285,267.025c-0.431,0-0.782-0.331-0.782-0.74c0-0.409,0.351-0.74,0.782-0.74h0.649
		c-0.208-0.208-0.494-0.346-0.82-0.346c-0.634,0-1.146,0.486-1.146,1.086s0.512,1.083,1.146,1.083c0.326,0,0.612-0.135,0.82-0.344
		H473.285z"/>
	<path fill="#008242" d="M479.949,270.703h-6.794c-0.243,0-0.439-0.198-0.439-0.439v-0.206c0-0.243,0.196-0.439,0.439-0.439h6.794
		c0.243,0,0.439,0.196,0.439,0.439v0.206C480.388,270.505,480.193,270.703,479.949,270.703"/>
	<path fill="#686968" d="M473.285,270.948c-0.431,0-0.782-0.331-0.782-0.74c0-0.409,0.351-0.742,0.782-0.742h0.649
		c-0.208-0.208-0.494-0.344-0.82-0.344c-0.634,0-1.146,0.486-1.146,1.086c0,0.597,0.512,1.083,1.146,1.083
		c0.326,0,0.612-0.135,0.82-0.344H473.285z"/>
	<path fill="#008242" d="M479.949,274.69h-6.794c-0.243,0-0.439-0.198-0.439-0.439v-0.206c0-0.243,0.196-0.439,0.439-0.439h6.794
		c0.243,0,0.439,0.196,0.439,0.439v0.206C480.388,274.492,480.193,274.69,479.949,274.69"/>
	<path fill="#686968" d="M473.285,274.935c-0.431,0-0.782-0.331-0.782-0.74c0-0.409,0.351-0.742,0.782-0.742h0.649
		c-0.208-0.208-0.494-0.344-0.82-0.344c-0.634,0-1.146,0.486-1.146,1.086c0,0.597,0.512,1.083,1.146,1.083
		c0.326,0,0.612-0.135,0.82-0.344H473.285z"/>
	<path fill="#008242" d="M479.949,278.391h-6.794c-0.243,0-0.439-0.195-0.439-0.439v-0.206c0-0.243,0.196-0.439,0.439-0.439h6.794
		c0.243,0,0.439,0.196,0.439,0.439v0.206C480.388,278.195,480.193,278.391,479.949,278.391"/>
	<path fill="#686968" d="M473.285,278.636c-0.431,0-0.782-0.331-0.782-0.74c0-0.409,0.351-0.74,0.782-0.74h0.649
		c-0.208-0.208-0.494-0.346-0.82-0.346c-0.634,0-1.146,0.486-1.146,1.086s0.512,1.083,1.146,1.083c0.326,0,0.612-0.135,0.82-0.344
		H473.285z"/>
	<path fill="#FFFFFF" d="M434.197,265.671c0,0-0.349,5.969,3.777,8.005c0.838,0.411,3.085,0.406,4.938-0.589
		c8.063-4.336,22.462-15.777,22.462-15.777s0.326-0.213,0.201-0.569c-0.125-0.354-0.803,0-0.803,0l-22.237,12.366
		C442.535,269.107,438.029,271.901,434.197,265.671"/>
	<polygon fill="#008342" points="390.543,197.049 390.543,200.831 394.292,200.831 394.292,202.158 390.543,202.158 
		390.543,204.911 394.292,204.911 394.292,206.238 390.543,206.238 390.543,208.595 396.128,208.595 396.128,210.127 
		390.543,210.127 390.543,212.776 394.292,212.776 394.292,214.1 390.543,214.1 390.543,216.876 394.292,216.876 394.292,218.202 
		390.543,218.202 390.543,221.114 394.292,221.114 394.292,222.44 390.543,222.44 390.543,225.136 394.292,225.136 394.292,226.463 
		390.543,226.463 390.543,229.059 396.128,229.059 396.128,230.591 390.543,230.591 390.543,233.099 394.292,233.099 
		394.292,234.425 390.543,234.425 390.543,237.099 394.292,237.099 394.292,238.425 390.543,238.425 390.543,241.181 
		394.292,241.181 394.292,242.505 390.543,242.505 390.543,245.379 394.292,245.379 394.292,246.706 390.543,246.706 
		390.543,249.184 396.128,249.184 396.128,250.716 390.543,250.716 390.543,253.284 394.292,253.284 394.292,254.61 390.543,254.61 
		390.543,257.404 394.292,257.404 394.292,258.731 390.543,258.731 390.543,261.911 449.333,261.911 449.333,197.049 	"/>
	<path fill="#FFFFFF" d="M434.439,262.026h-25.808v-29.369c0-6.731,5.79-12.205,12.905-12.205c7.115,0,12.903,5.474,12.903,12.205
		V262.026z"/>
	<path fill="#FFFFFF" d="M447.92,261.911v-28.313c-3.609,3.809-2.779,11.303-2.779,11.303c-2.46-0.514-2.3-4.895-2.3-4.895
		c0.479-5.622,2.786-7.523,2.786-7.523c-4.943,2.959-5.151,6.315-5.151,6.315s-1.853-1.996-0.318-5.863
		c1.532-3.867,7.09-2.869,7.09-2.869c-6.706-2.508-9.517,4.532-9.517,4.532c-1.439-2.932,0.256-5.116,0.256-5.116
		c2.618-4.632,7.89-2.167,7.89-2.167s-0.958-2.174-7.604-1.359c0,0,4.537-5.77,10.222-0.845c0,0,0.033-3.323,0.833-3.99
		c0.798,0.667,0.83,3.99,0.83,3.99c5.685-4.925,10.222,0.845,10.222,0.845c-6.646-0.815-7.601,1.359-7.601,1.359
		s5.269-2.465,7.89,2.167c0,0,1.693,2.184,0.256,5.116c0,0-2.814-7.039-9.52-4.532c0,0,5.557-0.998,7.09,2.869
		c1.535,3.867-0.318,5.863-0.318,5.863s-0.206-3.355-5.151-6.315c0,0,2.31,1.901,2.786,7.523c0,0,0.16,4.381-2.3,4.895
		c0,0,0.833-7.493-2.779-11.303v28.313H447.92z"/>
	<path fill="#FFFFFF" d="M465.596,265.671c0,0,0.349,5.969-3.777,8.005c-0.838,0.411-3.085,0.406-4.938-0.589
		c-8.063-4.336-22.462-15.777-22.462-15.777s-0.326-0.213-0.201-0.569c0.125-0.354,0.803,0,0.803,0l22.237,12.366
		C457.257,269.107,461.764,271.901,465.596,265.671"/>
</g>
</svg>
