<svg xmlns="http://www.w3.org/2000/svg" version="1.1" xmlns:xlink="http://www.w3.org/1999/xlink" id="svg-editor" viewBox="-68 -68 1244 761" width="1244" height="761"><rect width="100%" height="100%" id="bg" x="-68" y="-68" fill="#ffffff" stroke="none"></rect><g id="patterns"><g id="g-6"><g id="g-6-item" fill="#fed9e0" stroke-width="2" stroke="#ee375b"><path d="M389.6 367L422.51 355.39C424.03 337.95 428.97 321.49 436.65 306.68L336.12 248.64C316.92 283.77 306 324.07 306 366.93C306 409.79 316.92 450.09 336.12 485.22L436.65 427.18C428.99 412.42 424.06 396.01 422.52 378.63L389.6 367.01V367Z" stroke-linejoin="round"></path></g><g id="g-6-round" fill="#ee375b" stroke-width="2" stroke="#ee375b"><path d="M250 369C253.314 369 256 366.314 256 363C256 359.686 253.314 357 250 357C246.686 357 244 359.686 244 363C244 366.314 246.686 369 250 369Z"></path></g><g id="g-6-round" fill="#ee375b" stroke-width="2" stroke="#ee375b"><path fill-rule="evenodd" clip-rule="evenodd" d="M250 352.5C244.201 352.5 239.5 357.201 239.5 363C239.5 368.799 244.201 373.5 250 373.5C255.799 373.5 260.5 368.799 260.5 363C260.5 357.201 255.799 352.5 250 352.5ZM240.5 363C240.5 357.753 244.753 353.5 250 353.5C255.247 353.5 259.5 357.753 259.5 363C259.5 368.247 255.247 372.5 250 372.5C244.753 372.5 240.5 368.247 240.5 363Z"></path></g></g><g id="g-5"><g id="g-5-item" fill="#fee2db" stroke-width="2" stroke="#e26f4a"><path d="M497.87 485.78L471.36 508.47L477.76 474.16C463.82 464.36 451.87 451.92 442.65 437.56L342.12 495.6C384.54 564.97 460.22 611.78 546.99 613.85V497.78C529.5 496.99 512.91 492.77 497.87 485.78Z" stroke-linejoin="round"></path></g><g id="g-5-round" fill="#e26f4a" stroke-width="2" stroke="#e26f4a"><path d="M349 587C352.314 587 355 584.314 355 581C355 577.686 352.314 575 349 575C345.686 575 343 577.686 343 581C343 584.314 345.686 587 349 587Z"></path></g><g id="g-5-round" fill="#e26f4a" stroke-width="2" stroke="#e26f4a"><path fill-rule="evenodd" clip-rule="evenodd" d="M349 570.5C343.201 570.5 338.5 575.201 338.5 581C338.5 586.799 343.201 591.5 349 591.5C354.799 591.5 359.5 586.799 359.5 581C359.5 575.201 354.799 570.5 349 570.5ZM339.5 581C339.5 575.753 343.753 571.5 349 571.5C354.247 571.5 358.5 575.753 358.5 581C358.5 586.247 354.247 590.5 349 590.5C343.753 590.5 339.5 586.247 339.5 581Z"></path></g></g><g id="g-4"><g id="g-4-item" fill="#ffefd7" stroke-width="2" stroke="#f5ab2a"><path d="M663.34 437.56C654.15 451.88 642.25 464.29 628.36 474.07L634.76 508.39L608.26 485.71C593.18 492.74 576.54 496.99 558.99 497.78V613.85C645.76 611.78 721.44 564.97 763.86 495.6L663.33 437.56H663.34Z" stroke-linejoin="round"></path></g><g id="g-4-round" fill="#f5ab2a" stroke-width="2" stroke="#f5ab2a"><path d="M745.5 587C748.814 587 751.5 584.314 751.5 581C751.5 577.686 748.814 575 745.5 575C742.186 575 739.5 577.686 739.5 581C739.5 584.314 742.186 587 745.5 587Z"></path></g><g id="g-4-round" fill="#f5ab2a" stroke-width="2" stroke="#f5ab2a"><path fill-rule="evenodd" clip-rule="evenodd" d="M745.5 570.5C739.701 570.5 735 575.201 735 581C735 586.799 739.701 591.5 745.5 591.5C751.299 591.5 756 586.799 756 581C756 575.201 751.299 570.5 745.5 570.5ZM736 581C736 575.753 740.253 571.5 745.5 571.5C750.747 571.5 755 575.753 755 581C755 586.247 750.747 590.5 745.5 590.5C740.253 590.5 736 586.247 736 581Z"></path></g></g><g id="g-3"><g id="g-3-item" fill="#d9f5eb" stroke-width="2" stroke="#41b37e"><path d="M769.88 248.64L669.35 306.68C677.01 321.44 681.939 337.85 683.479 355.23L716.399 366.85L683.49 378.46C681.97 395.9 677.03 412.36 669.35 427.17L769.88 485.21C789.08 450.08 800 409.78 800 366.92C800 324.06 789.08 283.76 769.88 248.63V248.64Z" stroke-linejoin="round"></path></g><g id="g-3-round" fill="#41b37e" stroke-width="2" stroke="#41b37e"><path d="M855.5 369C858.814 369 861.5 366.314 861.5 363C861.5 359.686 858.814 357 855.5 357C852.186 357 849.5 359.686 849.5 363C849.5 366.314 852.186 369 855.5 369Z"></path></g><g id="g-3-round" fill="#41b37e" stroke-width="2" stroke="#41b37e"><path fill-rule="evenodd" clip-rule="evenodd" d="M855.5 352.5C849.701 352.5 845 357.201 845 363C845 368.799 849.701 373.5 855.5 373.5C861.299 373.5 866 368.799 866 363C866 357.201 861.299 352.5 855.5 352.5ZM846 363C846 357.753 850.253 353.5 855.5 353.5C860.747 353.5 865 357.753 865 363C865 368.247 860.747 372.5 855.5 372.5C850.253 372.5 846 368.247 846 363Z"></path></g></g><g id="g-2"><g id="g-2-item" fill="#d5eefe" stroke-width="2" stroke="#34a6d8"><path d="M559 120V236.07C576.49 236.86 593.08 241.08 608.12 248.07L634.63 225.38L628.23 259.69C642.17 269.49 654.12 281.93 663.34 296.29L763.87 238.25C721.45 168.88 645.77 122.07 559 120Z" stroke-linejoin="round"></path></g><g id="g-2-round" fill="#34a6d8" stroke-width="2" stroke="#34a6d8"><path d="M766.5 156C769.814 156 772.5 153.314 772.5 150C772.5 146.686 769.814 144 766.5 144C763.186 144 760.5 146.686 760.5 150C760.5 153.314 763.186 156 766.5 156Z"></path></g><g id="g-2-round" fill="#34a6d8" stroke-width="2" stroke="#34a6d8"><path fill-rule="evenodd" clip-rule="evenodd" d="M766.5 139.5C760.701 139.5 756 144.201 756 150C756 155.799 760.701 160.5 766.5 160.5C772.299 160.5 777 155.799 777 150C777 144.201 772.299 139.5 766.5 139.5ZM757 150C757 144.753 761.253 140.5 766.5 140.5C771.747 140.5 776 144.753 776 150C776 155.247 771.747 159.5 766.5 159.5C761.253 159.5 757 155.247 757 150Z"></path></g></g><g id="g-1"><g id="g-1-item" fill="#d8e7fe" stroke-width="2" stroke="#367be8"><path d="M342.13 238.25L442.66 296.29C451.85 281.97 463.75 269.56 477.64 259.78L471.24 225.46L497.74 248.14C512.82 241.11 529.46 236.86 547.01 236.07V120C460.24 122.07 384.56 168.88 342.14 238.25H342.13Z" stroke-linejoin="round"></path></g><g id="g-1-round" fill="#367be8" stroke-width="2" stroke="#367be8"><path d="M331 153C334.314 153 337 150.314 337 147C337 143.686 334.314 141 331 141C327.686 141 325 143.686 325 147C325 150.314 327.686 153 331 153Z"></path></g><g id="g-1-round" fill="#367be8" stroke-width="2" stroke="#367be8"><path fill-rule="evenodd" clip-rule="evenodd" d="M331 136.5C325.201 136.5 320.5 141.201 320.5 147C320.5 152.799 325.201 157.5 331 157.5C336.799 157.5 341.5 152.799 341.5 147C341.5 141.201 336.799 136.5 331 136.5ZM321.5 147C321.5 141.753 325.753 137.5 331 137.5C336.247 137.5 340.5 141.753 340.5 147C340.5 152.247 336.247 156.5 331 156.5C325.753 156.5 321.5 152.247 321.5 147Z"></path></g></g></g><g id="shapes"><g id="g-idea"><g id="g-idea-bottom" fill="#acb9cd" stroke="none"><path d="M530.618 403.216C528.544 402.83 526.55 404.199 526.165 406.274L525.642 409.09C525.257 411.164 526.626 413.158 528.7 413.543L574.234 422.001C576.308 422.386 578.301 421.017 578.687 418.943L579.21 416.127C579.595 414.053 578.226 412.059 576.152 411.674L530.618 403.216Z"></path></g><g id="g-idea-bottom" fill="#acb9cd" stroke="none"><path d="M531.637 416.031C529.563 415.646 527.569 417.015 527.184 419.089L526.661 421.905C526.276 423.979 527.645 425.973 529.719 426.358L575.253 434.816C577.327 435.202 579.32 433.833 579.706 431.759L580.229 428.942C580.614 426.868 579.245 424.874 577.171 424.489L531.637 416.031Z"></path></g><g id="g-idea-bottom" fill="#acb9cd" stroke="none"><path d="M528.203 431.904C528.588 429.83 530.582 428.461 532.656 428.846L578.19 437.304C580.264 437.69 581.633 439.683 581.248 441.757L580.724 444.574C580.339 446.648 578.345 448.017 576.271 447.632L530.738 439.174C528.664 438.788 527.294 436.795 527.68 434.721L528.203 431.904Z"></path></g><g id="g-idea-bottom" fill="#acb9cd" stroke="none"><path d="M552.71 458.795C545.05 457.372 539.794 450.464 540.247 442.883L570.057 448.42C567.757 455.658 560.371 460.218 552.71 458.795Z"></path></g><g id="g-idea-brain-bg" fill="#d1e0fa" stroke="none"><path d="M539.271 381.333C550.491 376.943 550.73 360.803 550.491 356.744V333.588V294.676C550.491 291.334 548.82 279.113 537.839 277.249C528.29 275.627 523.754 284.888 523.754 289.424C521.446 288.389 517.07 284.803 510.386 288.469C505.62 291.082 504.099 298.575 504.179 302.554C501.075 302.713 493.197 303.986 490.81 311.387C488.529 318.459 492.799 325.153 495.823 327.859L495.755 327.896C492.53 329.669 484.849 333.893 485.797 343.137C486.616 351.125 491.685 355.551 494.868 356.744C494.391 359.927 494.868 368.92 501.075 374.888C507.706 381.263 516.513 380.935 520.412 379.662C523.038 381.652 530.486 384.771 539.271 381.333Z"></path></g><g id="g-idea-brain-bg" fill="#d1e0fa" stroke="none"><path d="M567.727 381.333C556.507 376.943 556.268 360.803 556.507 356.744V333.588V294.676C556.507 291.334 558.178 279.113 569.16 277.249C578.709 275.627 583.244 284.888 583.244 289.424C585.552 288.389 589.929 284.803 596.613 288.469C601.379 291.082 602.9 298.575 602.82 302.554C605.923 302.713 613.801 303.986 616.189 311.387C618.47 318.459 614.199 325.153 611.175 327.859L611.244 327.896C614.469 329.669 622.15 333.893 621.202 343.137C620.383 351.125 615.313 355.551 612.13 356.744C612.608 359.927 612.13 368.92 605.923 374.888C599.293 381.263 590.486 380.935 586.587 379.662C583.961 381.652 576.512 384.771 567.727 381.333Z"></path></g><g id="g-idea-brain" fill="#3678e8" stroke="none"><path fill-rule="evenodd" clip-rule="evenodd" d="M528.888 282.48C526.884 284.787 525.969 287.728 525.969 289.424C525.969 290.175 525.589 290.875 524.958 291.283C524.328 291.691 523.534 291.752 522.848 291.445C522.478 291.279 522.091 291.074 521.743 290.887C521.684 290.855 521.625 290.823 521.566 290.791C521.26 290.627 520.958 290.464 520.632 290.299C519.866 289.912 519.054 289.558 518.162 289.33C516.462 288.895 514.277 288.861 511.451 290.411C509.751 291.343 508.434 293.279 507.551 295.746C506.982 297.334 506.647 298.995 506.494 300.44C508.561 300.676 510.996 301.32 513.272 302.626C516.604 304.537 519.563 307.859 520.449 313.171C520.65 314.378 519.835 315.519 518.628 315.72C517.421 315.921 516.28 315.106 516.079 313.899C515.436 310.044 513.383 307.796 511.068 306.469C508.675 305.096 505.971 304.703 504.279 304.767C502.889 304.839 500.469 305.165 498.177 306.255C495.924 307.327 493.879 309.087 492.918 312.067C491.974 314.994 492.364 317.892 493.384 320.436C494.413 323.005 496.034 325.075 497.3 326.208C497.836 326.687 498.106 327.396 498.024 328.11C497.943 328.824 497.52 329.454 496.891 329.8L496.822 329.837C493.449 331.692 487.216 335.265 488 342.911C488.549 348.256 491.215 351.689 493.536 353.454C495.382 348.839 499.991 342.961 508.449 342.01C508.35 338.61 509.18 335.4 510.857 332.826C512.955 329.607 516.344 327.462 520.575 327.316C524.255 327.189 527.297 328.682 529.341 331.139C531.351 333.556 532.313 336.793 532.174 340.126C532.124 341.348 531.091 342.298 529.869 342.247C528.647 342.196 527.697 341.164 527.748 339.942C527.848 337.545 527.145 335.427 525.935 333.972C524.759 332.559 523.027 331.664 520.727 331.744C518.035 331.836 515.933 333.153 514.569 335.245C513.179 337.378 512.527 340.389 513.052 343.75C513.152 344.39 512.967 345.041 512.546 345.532C512.125 346.024 511.51 346.307 510.863 346.307C501.618 346.307 497.669 353.546 497.056 357.094C496.866 358.386 496.848 361.125 497.616 364.242C498.383 367.353 499.891 370.675 502.611 373.291C508.492 378.946 516.367 378.653 519.725 377.556C520.415 377.331 521.171 377.458 521.75 377.897C523.88 379.51 530.526 382.377 538.464 379.27C543.135 377.443 545.696 373.113 547.046 368.314C548.354 363.668 548.39 359.011 548.289 357.029C547.958 355.534 546.932 354.559 545.429 354.03C543.814 353.461 541.828 353.501 540.248 354.059C538.967 354.511 538.097 355.497 537.516 356.846C536.923 358.222 536.712 359.814 536.712 361.042C536.712 362.075 535.997 362.971 534.99 363.201C533.982 363.431 532.95 362.934 532.501 362.003C531.205 359.311 529.201 357.825 527.251 357.343C525.311 356.864 523.283 357.332 521.694 358.832C520.243 360.203 519.88 361.932 520.116 363.613C520.37 365.423 521.263 366.775 521.772 367.171C522.738 367.922 522.912 369.314 522.161 370.28C521.41 371.245 520.018 371.419 519.052 370.668C517.412 369.393 516.1 366.867 515.729 364.23C515.34 361.466 515.932 358.181 518.653 355.612C521.361 353.054 524.943 352.209 528.314 353.042C530.089 353.481 531.764 354.371 533.217 355.666C533.289 355.474 533.366 355.282 533.448 355.092C534.358 352.979 535.995 350.862 538.773 349.881C541.251 349.007 544.278 348.927 546.9 349.851C547.37 350.016 547.831 350.216 548.277 350.452V333.588C548.277 331.752 546.642 329.999 544.578 329.827C543.662 329.751 542.535 330.03 541.675 330.675C540.884 331.268 540.293 332.18 540.293 333.588C540.293 334.812 539.301 335.803 538.078 335.803C536.855 335.803 535.863 334.812 535.863 333.588C535.863 330.699 537.182 328.507 539.017 327.131C540.783 325.806 542.998 325.25 544.946 325.413C546.12 325.51 547.254 325.861 548.277 326.413V309.148C547.582 310.227 546.788 311.26 545.884 312.203C543.012 315.2 539.741 317.106 536.395 317.684C533.008 318.268 529.685 317.459 526.918 315.274C521.363 310.889 520.952 302.339 526.108 297.789C531.295 293.213 538.045 295.524 540.089 299.954C540.602 301.065 540.117 302.381 539.006 302.894C537.895 303.407 536.579 302.922 536.067 301.811C535.247 300.034 531.969 298.526 529.04 301.111C526.079 303.723 526.146 309.02 529.663 311.797C531.431 313.193 533.479 313.691 535.642 313.318C537.847 312.938 540.306 311.621 542.685 309.138C544.676 307.061 546.09 304.268 547.005 301.497C547.921 298.722 548.277 296.156 548.277 294.676C548.277 293.248 547.899 289.705 546.289 286.372C544.711 283.105 542.053 280.211 537.468 279.433C533.581 278.773 530.798 280.282 528.888 282.48ZM552.707 294.676V356.681C552.831 358.893 552.818 364.158 551.311 369.514C549.796 374.898 546.628 380.833 540.079 383.396C531.297 386.832 523.664 384.333 520.019 382.072C515.217 383.231 506.369 383.051 499.54 376.484C496.053 373.132 494.219 368.974 493.315 365.302C492.639 362.561 492.459 359.997 492.531 358.085C488.798 355.988 484.387 351.1 483.593 343.363C482.698 334.636 488.439 329.776 492.317 327.329C491.178 325.89 490.08 324.103 489.271 322.084C487.97 318.836 487.365 314.852 488.702 310.707C490.128 306.285 493.217 303.709 496.274 302.254C498.316 301.283 500.381 300.79 502.034 300.546C502.192 298.626 502.613 296.395 503.38 294.252C504.428 291.325 506.255 288.208 509.321 286.527C513.179 284.411 516.524 284.338 519.26 285.038C520.318 285.308 521.252 285.686 522.05 286.062C522.665 283.884 523.835 281.542 525.544 279.575C528.289 276.414 532.549 274.104 538.21 275.065C544.607 276.151 548.275 280.299 550.278 284.445C552.248 288.523 552.707 292.761 552.707 294.676ZM584.949 286.062C584.334 283.884 583.164 281.542 581.455 279.575C578.71 276.414 574.45 274.104 568.789 275.065C562.392 276.151 558.724 280.299 556.721 284.445C554.751 288.523 554.292 292.761 554.292 294.676V356.681C554.168 358.893 554.181 364.158 555.688 369.514C557.203 374.898 560.371 380.833 566.92 383.396C575.702 386.832 583.335 384.333 586.98 382.072C591.782 383.231 600.63 383.051 607.459 376.484C610.946 373.132 612.78 368.974 613.684 365.302C614.36 362.561 614.54 359.997 614.468 358.085C618.201 355.988 622.612 351.1 623.406 343.363C624.301 334.636 618.56 329.776 614.682 327.329C615.821 325.89 616.919 324.103 617.728 322.084C619.029 318.836 619.634 314.852 618.297 310.707C616.871 306.285 613.782 303.709 610.725 302.254C608.683 301.283 606.618 300.79 604.965 300.546C604.807 298.626 604.386 296.395 603.619 294.252C602.571 291.325 600.744 288.208 597.678 286.527C593.82 284.411 590.475 284.338 587.739 285.038C586.681 285.308 585.747 285.686 584.949 286.062ZM600.505 300.44C600.352 298.995 600.017 297.334 599.448 295.746C598.565 293.279 597.248 291.343 595.548 290.411C592.722 288.861 590.537 288.895 588.837 289.33C587.945 289.558 587.133 289.912 586.367 290.299C586.041 290.464 585.739 290.627 585.433 290.791C585.374 290.823 585.315 290.855 585.256 290.887C584.908 291.074 584.521 291.279 584.151 291.445C583.465 291.752 582.671 291.691 582.041 291.283C581.41 290.875 581.03 290.175 581.03 289.424C581.03 287.728 580.115 284.787 578.111 282.48C576.201 280.282 573.418 278.773 569.531 279.433C564.946 280.211 562.288 283.105 560.71 286.372C559.1 289.705 558.722 293.248 558.722 294.676C558.722 296.156 559.078 298.722 559.994 301.497C560.909 304.268 562.323 307.061 564.313 309.138C566.693 311.621 569.152 312.938 571.357 313.318C573.52 313.691 575.568 313.193 577.336 311.797C580.853 309.02 580.92 303.723 577.959 301.111C575.03 298.526 571.752 300.034 570.932 301.811C570.42 302.922 569.104 303.407 567.993 302.894C566.882 302.381 566.397 301.065 566.91 299.954C568.954 295.524 575.704 293.213 580.891 297.789C586.047 302.339 585.636 310.889 580.081 315.274C577.314 317.459 573.991 318.268 570.604 317.684C567.258 317.106 563.987 315.2 561.115 312.203C560.211 311.26 559.417 310.227 558.722 309.148V326.413C559.745 325.861 560.879 325.51 562.053 325.413C564.001 325.25 566.216 325.806 567.982 327.131C569.817 328.507 571.136 330.699 571.136 333.588C571.136 334.812 570.144 335.803 568.921 335.803C567.698 335.803 566.706 334.812 566.706 333.588C566.706 332.18 566.115 331.268 565.324 330.675C564.464 330.03 563.337 329.751 562.421 329.827C560.357 329.999 558.722 331.752 558.722 333.588V350.452C559.168 350.216 559.629 350.016 560.099 349.851C562.721 348.927 565.748 349.007 568.226 349.881C571.004 350.862 572.641 352.979 573.551 355.092C573.633 355.282 573.71 355.474 573.782 355.666C575.235 354.371 576.91 353.481 578.685 353.042C582.056 352.209 585.638 353.054 588.346 355.612C591.067 358.181 591.659 361.466 591.27 364.23C590.899 366.867 589.587 369.393 587.947 370.668C586.981 371.419 585.589 371.245 584.838 370.28C584.087 369.314 584.261 367.922 585.227 367.171C585.736 366.775 586.629 365.423 586.883 363.613C587.119 361.932 586.756 360.203 585.305 358.832C583.716 357.332 581.688 356.864 579.748 357.343C577.798 357.825 575.794 359.311 574.498 362.003C574.049 362.934 573.017 363.431 572.009 363.201C571.002 362.971 570.287 362.075 570.287 361.042C570.287 359.814 570.076 358.222 569.483 356.846C568.902 355.497 568.032 354.511 566.751 354.059C565.171 353.501 563.185 353.461 561.57 354.03C560.067 354.559 559.041 355.534 558.71 357.029C558.609 359.011 558.645 363.668 559.953 368.314C561.303 373.113 563.864 377.443 568.535 379.27C576.473 382.377 583.119 379.51 585.249 377.897C585.828 377.458 586.584 377.331 587.274 377.556C590.632 378.653 598.507 378.946 604.388 373.291C607.108 370.675 608.616 367.353 609.383 364.242C610.151 361.125 610.133 358.386 609.943 357.094C609.33 353.546 605.381 346.307 596.136 346.307C595.489 346.307 594.874 346.024 594.453 345.532C594.032 345.041 593.847 344.39 593.947 343.75C594.472 340.389 593.82 337.378 592.43 335.245C591.066 333.153 588.964 331.836 586.272 331.744C583.972 331.664 582.24 332.559 581.064 333.972C579.854 335.427 579.151 337.545 579.251 339.942C579.302 341.164 578.352 342.196 577.13 342.247C575.908 342.298 574.875 341.348 574.825 340.126C574.686 336.793 575.648 333.556 577.658 331.139C579.702 328.682 582.744 327.189 586.424 327.316C590.655 327.462 594.044 329.607 596.142 332.826C597.819 335.4 598.649 338.61 598.55 342.01C607.008 342.961 611.617 348.839 613.463 353.454C615.784 351.689 618.45 348.256 618.999 342.911C619.783 335.265 613.55 331.692 610.177 329.837L610.108 329.8C609.479 329.454 609.056 328.824 608.975 328.11C608.893 327.396 609.163 326.687 609.699 326.208C610.965 325.075 612.586 323.005 613.615 320.436C614.635 317.892 615.025 314.994 614.081 312.067C613.12 309.087 611.075 307.327 608.822 306.255C606.53 305.165 604.11 304.839 602.72 304.767C601.028 304.703 598.324 305.096 595.931 306.469C593.616 307.796 591.563 310.044 590.92 313.899C590.719 315.106 589.578 315.921 588.371 315.72C587.164 315.519 586.349 314.378 586.55 313.171C587.436 307.859 590.395 304.537 593.727 302.626C596.003 301.32 598.438 300.676 600.505 300.44Z"></path></g><g id="g-idea-connect" fill="#3678e8" stroke="none"><path fill-rule="evenodd" clip-rule="evenodd" d="M542.795 385.185C543.7 384.362 545.101 384.429 545.924 385.334C547.429 386.989 548.722 389.679 549.636 392.529C550.568 395.432 551.194 398.778 551.194 401.914C551.194 403.138 550.202 404.129 548.979 404.129C547.755 404.129 546.764 403.138 546.764 401.914C546.764 399.321 546.237 396.435 545.418 393.882C544.582 391.276 543.528 389.284 542.646 388.314C541.823 387.409 541.889 386.008 542.795 385.185ZM517.349 386.172C517.84 385.052 519.147 384.543 520.267 385.034C523.718 386.549 530.333 389.592 534.092 399.197C534.538 400.337 533.976 401.621 532.836 402.067C531.697 402.513 530.412 401.951 529.966 400.812C526.85 392.847 521.561 390.441 518.486 389.091C517.366 388.599 516.857 387.292 517.349 386.172ZM564.402 385.628C565.194 386.56 565.081 387.958 564.149 388.75C562.133 390.464 560.522 393.085 559.359 395.925C558.202 398.748 557.57 401.59 557.392 403.547C557.281 404.765 556.204 405.663 554.985 405.553C553.767 405.442 552.869 404.364 552.98 403.146C553.2 400.727 553.944 397.456 555.259 394.246C556.567 391.052 558.521 387.72 561.28 385.375C562.212 384.583 563.61 384.696 564.402 385.628ZM588.301 387.023C588.878 388.102 588.472 389.444 587.393 390.021C579.772 394.098 574.547 402.103 572.773 406.761C572.337 407.904 571.058 408.478 569.914 408.043C568.771 407.607 568.197 406.327 568.633 405.184C570.678 399.815 576.5 390.824 585.303 386.115C586.382 385.538 587.724 385.945 588.301 387.023Z"></path></g></g></g><g id="texts"><text fill="#30394a" font-size="36" font-weight="600" transform="matrix(1,0,0,1,18,33.71613693237305)"><tspan dy="0" x="0" dx="112.54940795898438">حلول السلامة ومكافحة الحرائق المعتمدة من الدفاع المدني</tspan></text><text fill="#34a6d8" font-size="24" font-weight="600" transform="matrix(1,0,0,1,789,160)"><tspan dy="0" x="0" dx="0">تقنيات الإطفاء المتخص</tspan><tspan dy="31.200000000000003" x="0" dx="0">صة</tspan></text><text fill="#41b37e" font-size="24" font-weight="600" transform="matrix(1,0,0,1,878,375)"><tspan dy="0" x="0" dx="0">الصيانة الوقائية الذكية</tspan></text><text fill="#f5ab2a" font-size="24" font-weight="600" transform="matrix(1,0,0,1,767,593)"><tspan dy="0" x="0" dx="0">هندسة السلامة المتقد</tspan><tspan dy="31.200000000000003" x="0" dx="0">مة</tspan></text><text fill="#e26f4a" font-size="24" font-weight="600" transform="matrix(1,0,0,1,97,593)"><tspan dy="0" x="0" dx="5.2080535888671875">خدمات الامتثال الرقمية</tspan></text><text fill="#ee375b" font-size="24" font-weight="600" transform="matrix(1,0,0,1,0,375)"><tspan dy="0" x="0" dx="9.979461669921875">برامج التدريب والتوعية</tspan></text><text fill="#367be8" font-size="24" font-weight="600" transform="matrix(1,0,0,1,79,157)"><tspan dy="0" x="0" dx="3.024810791015625">أنظمة الإنذار المبكر الذ</tspan><tspan dy="31.200000000000003" x="0" dx="196.85065841674805">كية</tspan></text></g><g id="icons"><g id="icon-Animation" fill="#ee375b" stroke="none" transform="matrix(1,0,0,1,333.1345682144165,351)"><g><path xmlns="http://www.w3.org/2000/svg" fill-rule="evenodd" d="M13.83205 1.08162c0.48345 -0.9262095 1.76295 -0.9262085 2.2464 0l2.08545 3.99553 4.2953 0.84045c0.9917 0.19405 1.38565 1.4498 0.69445 2.21365l-3.0067 3.323 0.56205 4.5258c0.1295 1.043 -0.9042 1.8208 -1.8177 1.36775l-3.93605 -1.9523 -3.93605 1.9523c-0.9135 0.45305 -1.9472 -0.32475 -1.8177 -1.36775l0.56205 -4.5258 -3.00675 -3.323c-0.69115 -0.76385 -0.29725 -2.0196 0.69445 -2.21365l4.29535 -0.84045 2.08545 -3.99553ZM1.120875 21.4357c-0.488155 0.48815 -0.488155 1.2796 0 1.76775 0.48816 0.48815 1.279615 0.48815 1.76777 0l4.477155 -4.47715c0.48815 -0.48815 0.48815 -1.2796 0 -1.7678 -0.48815 -0.48815 -1.2796 -0.48815 -1.76775 0l-4.477175 4.4772Zm-0.25598 -4.78255c-0.4881545 -0.48815 -0.4881545 -1.2796 0 -1.76775l3.83008 -3.83005c0.488175 -0.4882 1.279625 -0.4882 1.767775 0 0.48815 0.48815 0.48815 1.2796 0 1.76775l-3.830085 3.83005c-0.48816 0.48815 -1.279615 0.48815 -1.76777 0Zm7.284655 4.826c-0.48815 0.48815 -0.48815 1.2796 0 1.76775 0.48815 0.48815 1.27965 0.48815 1.7678 0l1.93845 -1.93845c0.48815 -0.48815 0.48815 -1.2796 0 -1.76775 -0.48815 -0.4882 -1.2796 -0.4882 -1.76775 0l-1.9385 1.93845Z" transform="matrix(1.2055430430368779,0,0,1.2055430430368779,-0.10252057772952161,-0.0795376158406495)"></path></g></g><g id="icon-DocumentContractEditSign" fill="#e26f4a" stroke="none" transform="matrix(1,0,0,1,442.0004653930664,526)"><g><path xmlns="http://www.w3.org/2000/svg" fill-rule="evenodd" d="M18.717599999999997 0.21032914285714283C15.129462857142855 -0.06316011428571427 10.404342857142858 -0.0765696 6.8254971428571425 0.2091446714285714 5.595445714285714 0.307344 4.637777142857142 1.286598857142857 4.5416742857142856 2.504057142857143c-0.2903142857142857 3.6781542857142853 -0.25961142857142855 7.310914285714286 0.09192 10.997845714285713 3.336925714285714 -0.06152571428571428 6.996428571428571 0.03560571428571428 9.314931428571427 0.29137714285714283 0.22983428571428569 0.02535428571428571 0.43794857142857135 0.1422 0.5791542857142856 0.32134285714285715l2.256874285714286 -2.5608171428571427c1.2267599999999999 -1.3918971428571427 2.8980171428571424 -1.857222857142857 4.472245714285714 -1.6494514285714286 -0.014914285714285713 -2.436994285714286 -0.09068571428571429 -4.874674285714286 -0.2274857142857143 -7.3188 -0.06994285714285714 -1.249422857142857 -1.0414285714285714 -2.278404 -2.311714285714286 -2.375225142857143ZM12.73566857142857 15.401674285714286c-0.05792571428571428 0.2875028571428571 -0.09629142857142856 0.5811257142857142 -0.11569714285714285 0.8775771428571428l-0.7484914285714286 0.8492914285714286c-0.3410057142857143 0.3868285714285714 -0.57648 0.8551714285714286 -0.6837428571428571 1.3596857142857142l-0.5888914285714285 2.769771428571428H4.320411428571428c-1.1823942857142855 0 -2.1292114285714283 -0.2808 -2.842597714285714 -0.8209714285714285 -0.7154485714285714 -0.5417142857142857 -1.1082925714285714 -1.2776571428571428 -1.3039354285714284 -2.0238857142857145 -0.2639000571428571 -1.0066285714285714 -0.18785153142857142 -2.100942857142857 -0.032399142857142856 -2.9848971428571427C3.5579828571428567 15.130782857142856 9.187354285714285 15.12192 12.73566857142857 15.401674285714286ZM8.536885714285713 5.804571428571428c0 -0.5917371428571429 0.47969142857142855 -1.0714285714285714 1.0714285714285714 -1.0714285714285714h6.387737142857143c0.5917371428571429 0 1.0714285714285714 0.47969142857142855 1.0714285714285714 1.0714285714285714 0 0.5917199999999999 -0.47969142857142855 1.0714285714285714 -1.0714285714285714 1.0714285714285714H9.608314285714284c-0.5917371428571429 0 -1.0714285714285714 -0.47970857142857143 -1.0714285714285714 -1.0714285714285714Zm0 4.153011428571428c0 -0.5917199999999999 0.47969142857142855 -1.0714285714285714 1.0714285714285714 -1.0714285714285714l6.387737142857143 0c0.5917371428571429 0 1.0714285714285714 0.47970857142857143 1.0714285714285714 1.0714285714285714 0 0.5917371428571429 -0.47969142857142855 1.0714285714285714 -1.0714285714285714 1.0714285714285714l-6.387737142857143 0c-0.5917371428571429 0 -1.0714285714285714 -0.47969142857142855 -1.0714285714285714 -1.0714285714285714Zm9.85482857142857 3.013062857142857c1.1592 -1.3152685714285715 3.160628571428571 -1.238845714285714 4.445142857142857 -0.1026 1.3136571428571429 1.1618914285714286 1.6163999999999998 3.2020114285714283 0.378 4.50504l-5.0748 5.339828571428571c-0.10011428571428571 0.10542857142857143 -0.22542857142857142 0.18359999999999999 -0.3641142857142857 0.22714285714285715l-3.150411428571428 0.9905142857142857c-0.5898857142857142 0.1853142857142857 -1.15572 -0.020057142857142857 -1.5201942857142856 -0.3509142857142857 -0.36444 -0.33085714285714285 -0.6238971428571428 -0.8746285714285713 -0.49515428571428566 -1.4801142857142855l0.6730799999999999 -3.1657714285714285c0.030634285714285715 -0.144 0.09792 -0.27788571428571424 0.19534285714285712 -0.38845714285714283l4.913108571428571 -5.574668571428571Z" transform="matrix(1.1666401498251875,0,0,1.1666401498251875,-5.9595161613889035e-8,2.2348185605208395e-8)"></path></g></g><g id="icon-Bridge" fill="#f5ab2a" stroke="none" transform="matrix(1,0,0,1,636.9999990463257,526.6852321624756)"><g><path xmlns="http://www.w3.org/2000/svg" d="M1.21 8.31a4.05 4.05 0 0 0 0.47 -0.12 0.26 0.26 0 0 1 0.32 0.24v3a0.25 0.25 0 0 1 -0.25 0.25h-1a0.5 0.5 0 0 0 -0.5 0.5v1a0.5 0.5 0 0 0 0.5 0.5H4a0.25 0.25 0 0 1 0.25 0.25v4.21a0.25 0.25 0 0 0 0.31 0.24 2 2 0 0 1 2.1 0.9l0.15 0.19a0.25 0.25 0 0 0 0.44 -0.17V14a0.25 0.25 0 0 1 0.25 -0.25h9a0.25 0.25 0 0 1 0.25 0.25v5.78a0.25 0.25 0 0 0 0.4 0.2 2.61 2.61 0 0 0 0.57 -0.6 2 2 0 0 1 1.76 -1 0.25 0.25 0 0 0 0.27 -0.25V14a0.25 0.25 0 0 1 0.25 -0.25h3.25a0.5 0.5 0 0 0 0.5 -0.5v-1a0.5 0.5 0 0 0 -0.5 -0.5h-1a0.25 0.25 0 0 1 -0.25 -0.25v-3a0.26 0.26 0 0 1 0.32 -0.24 4.05 4.05 0 0 0 0.47 0.12 1 1 0 1 0 0.42 -1.95 5 5 0 0 1 -4 -4.89 1 1 0 1 0 -2 0 5.06 5.06 0 0 1 -5.25 5 5.06 5.06 0 0 1 -5.25 -5 1 1 0 0 0 -2 0 5 5 0 0 1 -4 4.89 1 1 0 1 0 0.42 2ZM19 6.7a0.25 0.25 0 0 1 0.42 -0.18 7.29 7.29 0 0 0 1 0.77 0.26 0.26 0 0 1 0.11 0.21v4a0.25 0.25 0 0 1 -0.25 0.25h-1a0.25 0.25 0 0 1 -0.25 -0.25Zm-3 0.65a0.26 0.26 0 0 1 0.11 -0.21 7.29 7.29 0 0 0 1 -0.77 0.25 0.25 0 0 1 0.42 0.18v4.92a0.25 0.25 0 0 1 -0.25 0.25h-1a0.25 0.25 0 0 1 -0.25 -0.25Zm-3.25 1.29A0.24 0.24 0 0 1 13 8.4a5.3 5.3 0 0 0 1.2 -0.32 0.25 0.25 0 0 1 0.33 0.24v3.15a0.25 0.25 0 0 1 -0.25 0.25H13a0.25 0.25 0 0 1 -0.25 -0.25ZM9.5 8.32a0.26 0.26 0 0 1 0.33 -0.24A5.3 5.3 0 0 0 11 8.4a0.24 0.24 0 0 1 0.22 0.24v2.83a0.25 0.25 0 0 1 -0.25 0.25H9.75a0.25 0.25 0 0 1 -0.25 -0.25Zm-3 -1.77a0.25 0.25 0 0 1 0.42 -0.18 7.29 7.29 0 0 0 1 0.77 0.26 0.26 0 0 1 0.08 0.21v4.12a0.25 0.25 0 0 1 -0.25 0.25h-1a0.25 0.25 0 0 1 -0.25 -0.25Zm-3 1a0.26 0.26 0 0 1 0.11 -0.21 7.29 7.29 0 0 0 1 -0.77 0.25 0.25 0 0 1 0.39 0.13v4.77a0.25 0.25 0 0 1 -0.25 0.25h-1a0.25 0.25 0 0 1 -0.25 -0.25Z" transform="matrix(1.1583095287823277,0,0,1.1583095287823277,0.016172621810319518,-0.08548721499129353)"></path><path xmlns="http://www.w3.org/2000/svg" d="M22.94 21.49a3.37 3.37 0 0 1 -2.65 -1.58 1 1 0 0 0 -1.72 0 3.36 3.36 0 0 1 -2.76 1.56A2.8 2.8 0 0 1 13.4 20a1 1 0 0 0 -1.72 -0.15 4.31 4.31 0 0 1 -3.11 1.65 3.55 3.55 0 0 1 -2.76 -1.59 1 1 0 0 0 -1.64 -0.09s-1.46 1.79 -3.12 1.71a1 1 0 0 0 -0.1 2h0.22a5.57 5.57 0 0 0 3.41 -1.34 0.5 0.5 0 0 1 0.63 0 5.15 5.15 0 0 0 3.36 1.31 5.77 5.77 0 0 0 3.49 -1.24 0.5 0.5 0 0 1 0.63 0 4.57 4.57 0 0 0 3.12 1.21 5.13 5.13 0 0 0 3.31 -1.21 0.49 0.49 0 0 1 0.64 0 4.68 4.68 0 0 0 3.29 1.2 1 1 0 1 0 -0.11 -2Z" transform="matrix(1.1583095287823277,0,0,1.1583095287823277,0.016172621810319518,-0.08548721499129353)"></path></g></g><g id="icon-CogDouble" fill="#41b37e" stroke="none" transform="matrix(1,0,0,1,739.2302627563477,347.0000009536743)"><g><path xmlns="http://www.w3.org/2000/svg" d="M23.3 9a0.53 0.53 0 0 0 -0.24 -0.31L22 8.09a5 5 0 0 0 0 -2.17l1.06 -0.62a0.5 0.5 0 0 0 0.18 -0.68l-1 -1.74a0.49 0.49 0 0 0 -0.68 -0.18l-1.1 0.62a3.64 3.64 0 0 0 -1.96 -1.09V1a0.5 0.5 0 0 0 -0.5 -0.5h-2a0.5 0.5 0 0 0 -0.5 0.5v1.23a3.64 3.64 0 0 0 -1.94 1.09l-1.1 -0.62a0.49 0.49 0 0 0 -0.68 0.18l-1 1.74a0.5 0.5 0 0 0 0.22 0.68l1 0.62a5 5 0 0 0 0 2.17l-1.06 0.61a0.53 0.53 0 0 0 -0.24 0.3 0.57 0.57 0 0 0 0.05 0.38l1 1.73a0.49 0.49 0 0 0 0.67 0.19l1.13 -0.63a3.64 3.64 0 0 0 1.94 1.09V13a0.5 0.5 0 0 0 0.5 0.5h2a0.5 0.5 0 0 0 0.5 -0.5v-1.23a3.64 3.64 0 0 0 1.94 -1.09l1.13 0.63a0.49 0.49 0 0 0 0.67 -0.19l1 -1.73A0.57 0.57 0 0 0 23.3 9Zm-6.3 0.5A2.5 2.5 0 1 1 19.5 7 2.5 2.5 0 0 1 17 9.5Z" transform="matrix(1.2173913043478262,0,0,1.2173913043478262,-0.14939821284750243,-0.10869565217391308)"></path><path xmlns="http://www.w3.org/2000/svg" d="M13.06 18.7 12 18.09a5 5 0 0 0 0 -2.17l1.06 -0.62a0.5 0.5 0 0 0 0.18 -0.68l-1 -1.74a0.49 0.49 0 0 0 -0.68 -0.18l-1.1 0.62a3.64 3.64 0 0 0 -1.96 -1.09V11a0.5 0.5 0 0 0 -0.5 -0.5H6a0.5 0.5 0 0 0 -0.5 0.5v1.23a3.64 3.64 0 0 0 -1.94 1.09l-1.1 -0.62a0.49 0.49 0 0 0 -0.68 0.18l-1 1.74a0.5 0.5 0 0 0 0.22 0.68l1 0.62a5 5 0 0 0 0 2.17l-1.06 0.61a0.53 0.53 0 0 0 -0.24 0.3 0.57 0.57 0 0 0 0.05 0.38l1 1.73a0.49 0.49 0 0 0 0.67 0.19l1.13 -0.63a3.64 3.64 0 0 0 1.95 1.1V23a0.5 0.5 0 0 0 0.5 0.5h2a0.5 0.5 0 0 0 0.5 -0.5v-1.23a3.64 3.64 0 0 0 1.94 -1.09l1.13 0.63a0.49 0.49 0 0 0 0.67 -0.19l1 -1.73a0.57 0.57 0 0 0 0.06 -0.39 0.53 0.53 0 0 0 -0.24 -0.3ZM7 19.5A2.5 2.5 0 1 1 9.5 17 2.5 2.5 0 0 1 7 19.5Z" transform="matrix(1.2173913043478262,0,0,1.2173913043478262,-0.14939821284750243,-0.10869565217391308)"></path></g></g><g id="icon-Fire" fill="#34a6d8" stroke="none" transform="matrix(1,0,0,1,640.3353939056396,176)"><g><path xmlns="http://www.w3.org/2000/svg" d="M21.58 11.13a0.51 0.51 0 0 0 -0.34 -0.33 0.48 0.48 0 0 0 -0.46 0.1 9.11 9.11 0 0 1 -2 1.25 0.24 0.24 0 0 1 -0.23 0 0.26 0.26 0 0 1 -0.13 -0.2A13.13 13.13 0 0 0 7.76 0a0.49 0.49 0 0 0 -0.49 0.21 0.49 0.49 0 0 0 0 0.53A9.67 9.67 0 0 1 8.5 5.5a9.15 9.15 0 0 1 -0.63 3.32 0.25 0.25 0 0 1 -0.44 0 8.8 8.8 0 0 1 -1 -2.29 0.51 0.51 0 0 0 -0.33 -0.34 0.5 0.5 0 0 0 -0.47 0.1A9.93 9.93 0 0 0 2 14l0 0.54a10 10 0 1 0 19.57 -3.41ZM12 21.25a4 4 0 0 1 -4 -4.11 7.56 7.56 0 0 1 4.65 -6.89 0.25 0.25 0 0 1 0.29 0.08 0.26 0.26 0 0 1 0 0.31 4.31 4.31 0 0 0 -0.47 4.16 0.28 0.28 0 0 0 0.18 0.14 0.29 0.29 0 0 0 0.22 -0.06 2.28 2.28 0 0 0 0.73 -1.06 0.25 0.25 0 0 1 0.14 -0.16 0.22 0.22 0 0 1 0.21 0A3.69 3.69 0 0 1 16 17.25a3.92 3.92 0 0 1 -4 4Z" transform="matrix(1.1673788998774177,0,0,1.1673788998774177,-0.33474784314808526,0.0011862414173376048)"></path></g></g><g id="icon-Alarm" fill="#367be8" stroke="none" transform="matrix(1,0,0,1,441.9999990463257,176.7751932144165)"><g><path xmlns="http://www.w3.org/2000/svg" fill-rule="evenodd" d="M13.2503 2.012205c0 -0.690355 -0.55965 -1.25 -1.25 -1.25s-1.25 0.559645 -1.25 1.25v1.70336c0 0.690355 0.55965 1.25 1.25 1.25s1.25 -0.559645 1.25 -1.25V2.012205ZM4.72768 4.506505c-0.488155 -0.488155 -1.27961 -0.488155 -1.767765 0 -0.488155 0.488155 -0.48816 1.279595 0 1.767745l1.40435 1.40435c0.488155 0.4882 1.279635 0.4882 1.767785 0 0.48815 -0.48815 0.48815 -1.2796 0 -1.76775L4.72768 4.506505ZM21.03915 6.2743c0.48815 -0.48815 0.48815 -1.279625 0 -1.76778 -0.48815 -0.488155 -1.2796 -0.488155 -1.76775 0l-1.40435 1.40433c-0.4882 0.4882 -0.4882 1.27965 0 1.7678 0.48815 0.48815 1.2796 0.48815 1.76775 0l1.40435 -1.40435ZM1.3537 12.296c-0.690355 0 -1.2500015 0.55965 -1.2500015 1.25 0 0.6904 0.5596465 1.25 1.2500015 1.25h1.70621c0.69036 0 1.25 -0.5596 1.25 -1.25 0 -0.69035 -0.55964 -1.25 -1.25 -1.25H1.3537Zm19.587 0c-0.6904 0 -1.25 0.55965 -1.25 1.25 0 0.6904 0.5596 1.25 1.25 1.25h1.7062c0.69035 0 1.25 -0.5596 1.25 -1.25 0 -0.69035 -0.55965 -1.25 -1.25 -1.25h-1.7062Zm-8.94125 -6.15c-3.89955 0 -7.06079 3.1612 -7.06079 7.0608 0 0.171 -0.000945 0.3556 -0.001945 0.5513 -0.00582 1.13855 -0.01356 2.6524 0.151485 4.04065 1.13605 -0.03355 2.78285 -0.06285 5.1582 -0.07265 0.02055 -0.9231 0.0617 -1.784 0.12335 -2.45865 0.03205 -0.3507 0.499 -0.6273 1.2626 -0.6408 0.1126 -0.002 0.235 -0.0031 0.36785 -0.0031 0.1328 0 0.2552 0.0011 0.36785 0.0031 0.76355 0.0135 1.2305 0.2901 1.26255 0.6408 0.06165 0.67465 0.1028 1.53555 0.1234 2.45865 2.37425 0.0098 4.02065 0.03905 5.15675 0.0726 0.165 -1.38825 0.1573 -2.90205 0.15145 -4.0406 -0.001 -0.1957 -0.00195 -0.3803 -0.00195 -0.5513 0 -3.8996 -3.1612 -7.0608 -7.0608 -7.0608Zm9.3698 13.96595c-0.05885 -0.4347 -0.6588 -0.74175 -1.4935 -0.7779 -1.23845 -0.05355 -3.5719 -0.1114 -7.87525 -0.1114 -3.22755 0 -5.347 0.03255 -6.72745 0.0714 -0.460175 0.01295 -0.83822 0.0266 -1.147835 0.04 -0.834715 0.03615 -1.43466 0.3432 -1.49351 0.7779 -0.036605 0.27035 -0.064505 0.635 -0.064505 1.11835 0 0.48335 0.0279 0.848 0.064505 1.11835 0.05885 0.43465 0.658795 0.74175 1.493515 0.7779 1.23843 0.05355 3.57188 0.1114 7.87528 0.1114 4.30335 0 6.6368 -0.05785 7.87525 -0.1114 0.8347 -0.03615 1.43465 -0.3432 1.4935 -0.7779 0.0366 -0.27035 0.0645 -0.635 0.0645 -1.11835 0 -0.48335 -0.0279 -0.848 -0.0645 -1.11835Z" transform="matrix(1.1768067472097055,0,0,1.1768067472097055,-0.018334593069942215,-0.13476296650955777)"></path></g></g></g></svg>